<?xml version="1.0" encoding="UTF-8" standalone="no"?>
<!-- Created with Inkscape (http://www.inkscape.org/) -->

<svg
   width="400.23776"
   height="242.41151"
   viewBox="0 0 105.89624 64.138046"
   version="1.1"
   id="svg1736"
   xml:space="preserve"
   inkscape:version="1.2.1 (9c6d41e4, 2022-07-14)"
   sodipodi:docname="grouphig.svg"
   xmlns:inkscape="http://www.inkscape.org/namespaces/inkscape"
   xmlns:sodipodi="http://sodipodi.sourceforge.net/DTD/sodipodi-0.dtd"
   xmlns="http://www.w3.org/2000/svg"
   xmlns:svg="http://www.w3.org/2000/svg"><sodipodi:namedview
     id="namedview1738"
     pagecolor="#ffffff"
     bordercolor="#000000"
     borderopacity="0.25"
     inkscape:showpageshadow="2"
     inkscape:pageopacity="0.0"
     inkscape:pagecheckerboard="0"
     inkscape:deskcolor="#d1d1d1"
     inkscape:document-units="mm"
     showgrid="false"
     inkscape:zoom="1.2024703"
     inkscape:cx="285.66194"
     inkscape:cy="96.46808"
     inkscape:window-width="1285"
     inkscape:window-height="650"
     inkscape:window-x="0"
     inkscape:window-y="23"
     inkscape:window-maximized="0"
     inkscape:current-layer="layer1" /><defs
     id="defs1733"><clipPath
       id="8c2f9723df"><path
         d="m 177,30 h 139.35937 v 96 H 177 Z m 0,0"
         clip-rule="nonzero"
         id="path2583" /></clipPath><clipPath
       id="145f13901d"><path
         d="m 133.35156,90 h 108 v 120 h -108 z m 0,0"
         clip-rule="nonzero"
         id="path2586" /></clipPath><clipPath
       id="5eaeca7199"><path
         d="M 119.80078,90 H 255 V 210 H 119.80078 Z m 0,0"
         clip-rule="nonzero"
         id="path2589" /></clipPath><clipPath
       id="0d6b5d83bf"><path
         d="m 106,72 h 1.05078 v 2 H 106 Z m 0,0"
         clip-rule="nonzero"
         id="path2592" /></clipPath><clipPath
       id="6c63f7cf5a"><path
         d="m 64,28.167969 h 1 V 30 h -1 z m 0,0"
         clip-rule="nonzero"
         id="path2595" /></clipPath><clipPath
       id="43ba134a87"><path
         d="M 29.050781,38 H 31 v 2 h -1.949219 z m 0,0"
         clip-rule="nonzero"
         id="path2598" /></clipPath><clipPath
       id="115b7fb7a7"><path
         d="M 79,81 H 92 V 92.667969 H 79 Z m 0,0"
         clip-rule="nonzero"
         id="path2601" /></clipPath><clipPath
       id="07e257008a"><path
         d="m 133,65 h 0.69922 v 2 H 133 Z m 0,0"
         clip-rule="nonzero"
         id="path2604" /></clipPath><clipPath
       id="c9e0073419"><path
         d="m 104,35.265625 h 1 V 36 h -1 z m 0,0"
         clip-rule="nonzero"
         id="path2607" /></clipPath><clipPath
       id="62beabb9fa"><path
         d="M 80.449219,42 H 82 v 2 h -1.550781 z m 0,0"
         clip-rule="nonzero"
         id="path2610" /></clipPath><clipPath
       id="08764c1f27"><path
         d="m 114,71 h 9 v 8.515625 h -9 z m 0,0"
         clip-rule="nonzero"
         id="path2613" /></clipPath><clipPath
       id="d5659457d0"><path
         d="m 74,98 h 2 v 2 h -2 z m 0,0"
         clip-rule="nonzero"
         id="path2616" /></clipPath><clipPath
       id="43dc609abd"><path
         d="M 11.707031,99.960938 53.074219,66.429688 80.9375,100.80469 39.570312,134.33594 Z m 0,0"
         clip-rule="nonzero"
         id="path2619" /></clipPath><clipPath
       id="98fddc0f94"><path
         d="M 11.707031,99.960938 53.074219,66.429688 80.9375,100.80469 39.570312,134.33594 Z m 0,0"
         clip-rule="nonzero"
         id="path2622" /></clipPath><clipPath
       id="9e9c8284ff"><path
         d="m 71,90 h 2 v 1 h -2 z m 0,0"
         clip-rule="nonzero"
         id="path2625" /></clipPath><clipPath
       id="6f34accafe"><path
         d="M 11.707031,99.960938 53.074219,66.429688 80.9375,100.80469 39.570312,134.33594 Z m 0,0"
         clip-rule="nonzero"
         id="path2628" /></clipPath><clipPath
       id="198cbad529"><path
         d="M 11.707031,99.960938 53.074219,66.429688 80.9375,100.80469 39.570312,134.33594 Z m 0,0"
         clip-rule="nonzero"
         id="path2631" /></clipPath><clipPath
       id="9f927a76f4"><path
         d="m 30,84 h 2 v 2 h -2 z m 0,0"
         clip-rule="nonzero"
         id="path2634" /></clipPath><clipPath
       id="e2678fe54e"><path
         d="M 11.707031,99.960938 53.074219,66.429688 80.9375,100.80469 39.570312,134.33594 Z m 0,0"
         clip-rule="nonzero"
         id="path2637" /></clipPath><clipPath
       id="4e0fc2a3ab"><path
         d="M 11.707031,99.960938 53.074219,66.429688 80.9375,100.80469 39.570312,134.33594 Z m 0,0"
         clip-rule="nonzero"
         id="path2640" /></clipPath><clipPath
       id="792d47b48e"><path
         d="m 53,101 h 2 v 2 h -2 z m 0,0"
         clip-rule="nonzero"
         id="path2643" /></clipPath><clipPath
       id="77ac033abd"><path
         d="M 11.707031,99.960938 53.074219,66.429688 80.9375,100.80469 39.570312,134.33594 Z m 0,0"
         clip-rule="nonzero"
         id="path2646" /></clipPath><clipPath
       id="f1e15cb417"><path
         d="M 11.707031,99.960938 53.074219,66.429688 80.9375,100.80469 39.570312,134.33594 Z m 0,0"
         clip-rule="nonzero"
         id="path2649" /></clipPath><clipPath
       id="c315ab2fca"><path
         d="m 47,113 h 2 v 2 h -2 z m 0,0"
         clip-rule="nonzero"
         id="path2652" /></clipPath><clipPath
       id="91b2820295"><path
         d="M 11.707031,99.960938 53.074219,66.429688 80.9375,100.80469 39.570312,134.33594 Z m 0,0"
         clip-rule="nonzero"
         id="path2655" /></clipPath><clipPath
       id="b34149e780"><path
         d="M 11.707031,99.960938 53.074219,66.429688 80.9375,100.80469 39.570312,134.33594 Z m 0,0"
         clip-rule="nonzero"
         id="path2658" /></clipPath><clipPath
       id="94c7d9edf8"><path
         d="m 64,90 h 2 v 2 h -2 z m 0,0"
         clip-rule="nonzero"
         id="path2661" /></clipPath><clipPath
       id="6cf0cc9df0"><path
         d="M 11.707031,99.960938 53.074219,66.429688 80.9375,100.80469 39.570312,134.33594 Z m 0,0"
         clip-rule="nonzero"
         id="path2664" /></clipPath><clipPath
       id="4a66f0f253"><path
         d="M 11.707031,99.960938 53.074219,66.429688 80.9375,100.80469 39.570312,134.33594 Z m 0,0"
         clip-rule="nonzero"
         id="path2667" /></clipPath><clipPath
       id="02af67dc40"><path
         d="m 16,104 h 2 v 2 h -2 z m 0,0"
         clip-rule="nonzero"
         id="path2670" /></clipPath><clipPath
       id="83ab63c45d"><path
         d="M 11.707031,99.960938 53.074219,66.429688 80.9375,100.80469 39.570312,134.33594 Z m 0,0"
         clip-rule="nonzero"
         id="path2673" /></clipPath><clipPath
       id="43390aeeb7"><path
         d="M 11.707031,99.960938 53.074219,66.429688 80.9375,100.80469 39.570312,134.33594 Z m 0,0"
         clip-rule="nonzero"
         id="path2676" /></clipPath><clipPath
       id="0177a5d3c7"><path
         d="m 37,105 h 3 v 3 h -3 z m 0,0"
         clip-rule="nonzero"
         id="path2679" /></clipPath><clipPath
       id="73868219ce"><path
         d="M 11.707031,99.960938 53.074219,66.429688 80.9375,100.80469 39.570312,134.33594 Z m 0,0"
         clip-rule="nonzero"
         id="path2682" /></clipPath><clipPath
       id="3f60524fc2"><path
         d="M 11.707031,99.960938 53.074219,66.429688 80.9375,100.80469 39.570312,134.33594 Z m 0,0"
         clip-rule="nonzero"
         id="path2685" /></clipPath><clipPath
       id="7f4371a8ae"><path
         d="m 25,96 h 9 v 8 h -9 z m 0,0"
         clip-rule="nonzero"
         id="path2688" /></clipPath><clipPath
       id="db902cc626"><path
         d="M 11.707031,99.960938 53.074219,66.429688 80.9375,100.80469 39.570312,134.33594 Z m 0,0"
         clip-rule="nonzero"
         id="path2691" /></clipPath><clipPath
       id="cd45898ad6"><path
         d="M 11.707031,99.960938 53.074219,66.429688 80.9375,100.80469 39.570312,134.33594 Z m 0,0"
         clip-rule="nonzero"
         id="path2694" /></clipPath><clipPath
       id="d905a133da"><path
         d="m 62,103 h 9 v 9 h -9 z m 0,0"
         clip-rule="nonzero"
         id="path2697" /></clipPath><clipPath
       id="e93fca54f4"><path
         d="M 11.707031,99.960938 53.074219,66.429688 80.9375,100.80469 39.570312,134.33594 Z m 0,0"
         clip-rule="nonzero"
         id="path2700" /></clipPath><clipPath
       id="1862408571"><path
         d="M 11.707031,99.960938 53.074219,66.429688 80.9375,100.80469 39.570312,134.33594 Z m 0,0"
         clip-rule="nonzero"
         id="path2703" /></clipPath><clipPath
       id="91c50830ab"><path
         d="m 43,89 h 3 v 3 h -3 z m 0,0"
         clip-rule="nonzero"
         id="path2706" /></clipPath><clipPath
       id="badcce552d"><path
         d="M 11.707031,99.960938 53.074219,66.429688 80.9375,100.80469 39.570312,134.33594 Z m 0,0"
         clip-rule="nonzero"
         id="path2709" /></clipPath><clipPath
       id="db67607ce8"><path
         d="M 11.707031,99.960938 53.074219,66.429688 80.9375,100.80469 39.570312,134.33594 Z m 0,0"
         clip-rule="nonzero"
         id="path2712" /></clipPath><clipPath
       id="7d6e0e1eae"><path
         d="m 40,121 h 2 v 2 h -2 z m 0,0"
         clip-rule="nonzero"
         id="path2715" /></clipPath><clipPath
       id="8e62bd7d63"><path
         d="M 11.707031,99.960938 53.074219,66.429688 80.9375,100.80469 39.570312,134.33594 Z m 0,0"
         clip-rule="nonzero"
         id="path2718" /></clipPath><clipPath
       id="82ecd48ef8"><path
         d="M 11.707031,99.960938 53.074219,66.429688 80.9375,100.80469 39.570312,134.33594 Z m 0,0"
         clip-rule="nonzero"
         id="path2721" /></clipPath><clipPath
       id="06a3fbb404"><path
         d="m 35,116 h 5 v 5 h -5 z m 0,0"
         clip-rule="nonzero"
         id="path2724" /></clipPath><clipPath
       id="cf2b4d77e9"><path
         d="M 11.707031,99.960938 53.074219,66.429688 80.9375,100.80469 39.570312,134.33594 Z m 0,0"
         clip-rule="nonzero"
         id="path2727" /></clipPath><clipPath
       id="e8a16f667f"><path
         d="M 11.707031,99.960938 53.074219,66.429688 80.9375,100.80469 39.570312,134.33594 Z m 0,0"
         clip-rule="nonzero"
         id="path2730" /></clipPath><clipPath
       id="b74cbeb07c"><path
         d="m 142,105 h 1.24219 v 2 H 142 Z m 0,0"
         clip-rule="nonzero"
         id="path2733" /></clipPath><clipPath
       id="ea56da1074"><path
         d="m 124,86.269531 h 2 V 87 h -2 z m 0,0"
         clip-rule="nonzero"
         id="path2736" /></clipPath><clipPath
       id="1ced3412a0"><path
         d="M 109.49219,90 H 111 v 2 h -1.50781 z m 0,0"
         clip-rule="nonzero"
         id="path2739" /></clipPath><clipPath
       id="a33d0b750e"><path
         d="m 131,109 h 6 v 5.76953 h -6 z m 0,0"
         clip-rule="nonzero"
         id="path2742" /></clipPath><clipPath
       id="9b59af9c20"><path
         d="m 223.69531,83.984375 h 9 v 9 h -9 z m 0,0"
         clip-rule="nonzero"
         id="path2745" /></clipPath><clipPath
       id="ce65f7b402"><path
         d="m 304.36328,45.21875 h 12 v 12 h -12 z m 0,0"
         clip-rule="nonzero"
         id="path2748" /></clipPath><clipPath
       id="dd53ecf273"><path
         d="m 182.79297,57.21875 h 9.75 v 9.75 h -9.75 z m 0,0"
         clip-rule="nonzero"
         id="path2751" /></clipPath><clipPath
       id="a13d38005b"><path
         d="m 79.039062,80.542969 h 12 v 12 h -12 z m 0,0"
         clip-rule="nonzero"
         id="path2754" /></clipPath><clipPath
       id="484c1a561c"><path
         d="m 34.242188,114.44922 h 6 v 6 h -6 z m 0,0"
         clip-rule="nonzero"
         id="path2757" /></clipPath><clipPath
       id="6b60c0854d"><path
         d="m 43.03125,38.8125 h 12.75 v 12.75 h -12.75 z m 0,0"
         clip-rule="nonzero"
         id="path2760" /></clipPath><clipPath
       id="bf229b0a83"><path
         d="m 124.70703,60.476562 h 3.75 v 3.75 h -3.75 z m 0,0"
         clip-rule="nonzero"
         id="path2763" /></clipPath></defs><g
     inkscape:label="Layer 1"
     inkscape:groupmode="layer"
     id="layer1"
     transform="translate(-42.695946,-28.337757)"><g
       id="g3263"
       transform="matrix(0.35277778,0,0,0.35277778,36.986255,18.395211)"><g
         clip-path="url(#8c2f9723df)"
         id="g2770"><path
           fill="#757575"
           d="m 295.59766,117.37891 c -0.10157,-0.0586 -0.20313,-0.11328 -0.3125,-0.15235 -0.51172,-0.19531 -1.04688,-0.17968 -1.51954,0.004 L 283.44141,94.921875 c 0.42968,-0.230469 0.78125,-0.609375 0.96875,-1.101563 0.10156,-0.261718 0.14453,-0.53125 0.14062,-0.792968 l 27.25781,-2.21875 c 0.0781,0.539062 0.36328,1.035156 0.80078,1.371094 z m -84.87891,5.42968 c -0.15625,-0.39843 -0.43359,-0.74609 -0.80469,-0.98828 l 17.75,-31.269529 c 0.0547,0.02734 0.10938,0.05469 0.16797,0.07422 0.94922,0.363281 1.99609,0 2.52734,-0.820312 l 28.25782,15.933591 c -0.0234,0.0547 -0.0508,0.10938 -0.0703,0.16406 -0.16406,0.42969 -0.17968,0.875 -0.0742,1.28516 z M 186.46484,62.847656 c 0.51953,0.08594 1.04297,-0.02734 1.47657,-0.292968 l 14.19921,19.800781 c -0.27343,0.222656 -0.5,0.523437 -0.63671,0.878906 -0.17188,0.445313 -0.17579,0.910156 -0.0547,1.335937 l -20.1875,7.164063 c -0.21485,-0.507813 -0.62891,-0.929687 -1.1836,-1.140625 -0.0469,-0.01953 -0.0977,-0.03516 -0.14453,-0.04687 z M 214.17578,39.09375 c 0.21484,0.234375 0.48828,0.429688 0.80859,0.550781 0.30079,0.117188 0.60938,0.15625 0.90625,0.132813 l 2.64454,19.464844 c -0.6875,0.136718 -1.28907,0.613281 -1.5586,1.3125 -0.0742,0.195312 -0.11719,0.390624 -0.13281,0.585937 l -27.91406,-0.472656 c -0.0156,-0.402344 -0.14844,-0.789063 -0.37891,-1.113281 z m 52.70313,-6.371094 c 0.0273,0.160156 0.0703,0.316406 0.13281,0.46875 L 243.53516,44.6875 c -0.23438,-0.410156 -0.60547,-0.742188 -1.08204,-0.925781 -1.08984,-0.414063 -2.3125,0.128906 -2.73046,1.21875 0,0 0,0 0,0.0039 l -21.92969,-6.8125 c 0.0469,-0.191406 0.0664,-0.386719 0.0586,-0.574219 z m -5.60547,71.960934 c -0.52344,-0.19921 -1.07422,-0.17578 -1.55469,0.0195 l -8.07031,-16.632818 c 0.41406,-0.234374 0.7539,-0.605468 0.9375,-1.085937 0.0195,-0.05859 0.0391,-0.121094 0.0586,-0.179687 l 27.70313,5.949218 c -0.0703,0.457032 0.0156,0.914063 0.22656,1.308594 l -18.33203,11.37109 c -0.23438,-0.32812 -0.5625,-0.59375 -0.96875,-0.75 z M 230.5625,89.40625 c 0.10547,-0.28125 0.14844,-0.570312 0.13672,-0.851562 l 17.83203,-1.960938 c 0.12109,0.707031 0.60156,1.335938 1.32422,1.609375 0.51953,0.203125 1.07422,0.179687 1.55469,-0.01953 l 8.07031,16.636715 c -0.29297,0.16016 -0.54297,0.39453 -0.73438,0.6875 L 230.48828,89.574219 c 0.0273,-0.05469 0.0508,-0.109375 0.0742,-0.167969 z m -21.05078,32.21094 c -0.29688,-0.11328 -0.60156,-0.15625 -0.89844,-0.13281 l -4.72266,-35.425786 c 0.6875,-0.136719 1.29297,-0.609375 1.5625,-1.316406 0.0312,-0.07813 0.0547,-0.15625 0.0742,-0.238282 l 20.96485,3.894532 c -0.0977,0.792968 0.26562,1.582031 0.9375,2.023437 l -17.7461,31.269535 c -0.0547,-0.0273 -0.11328,-0.0547 -0.17187,-0.0742 z m 58.69531,-87.261721 c 0.0547,0.01953 0.10547,0.03516 0.16016,0.05078 l -6.91016,30.644531 c -0.59766,-0.09766 -1.19531,0.07031 -1.65234,0.4375 L 243.21484,47.20703 c 0.19532,-0.199219 0.35157,-0.4375 0.45703,-0.71875 0.20313,-0.523437 0.17579,-1.078125 -0.0234,-1.558593 l 23.47656,-11.5 c 0.23437,0.410156 0.60547,0.742187 1.08203,0.925781 z m 41.21875,17.363281 -18.66406,11.183594 c -0.23438,-0.339844 -0.57031,-0.613282 -0.98438,-0.773438 -0.60547,-0.230468 -1.24609,-0.164062 -1.76953,0.121094 L 270.19922,34.09375 c 0.26562,-0.195312 0.48828,-0.445312 0.64453,-0.75 l 38.47266,16.691406 c -0.20704,0.574219 -0.15235,1.179688 0.10937,1.683594 z M 281.19922,91.351562 262.5625,68.679688 c 0.23047,-0.214844 0.41797,-0.480469 0.53516,-0.789063 0.10546,-0.28125 0.14843,-0.570313 0.13671,-0.851563 l 23.70704,-2.578124 c 0.12109,0.710937 0.60156,1.335937 1.32421,1.613281 0.0508,0.01953 0.10547,0.03516 0.16016,0.05078 l -5.65234,24.855469 c -0.5625,-0.08984 -1.125,0.05078 -1.57422,0.371094 z m -29.45703,-6.902343 8.48047,-15.402344 c 0.0469,0.01953 0.0937,0.04297 0.14453,0.0625 0.6914,0.261719 1.43359,0.140625 1.99218,-0.261719 l 18.63672,22.675782 C 280.76562,91.734375 280.58203,92 280.46094,92.3125 c -0.0234,0.05859 -0.043,0.121094 -0.0586,0.179688 l -27.70312,-5.949219 c 0.125,-0.820313 -0.25,-1.648438 -0.95703,-2.09375 z m -22.39844,2.230469 c -0.44531,-0.167969 -0.90625,-0.175782 -1.33203,-0.05469 l -8.23438,-23.371094 c 0.50782,-0.21875 0.9336,-0.628906 1.14844,-1.1875 0.043,-0.113281 0.0703,-0.222656 0.0937,-0.335937 l 37.99609,5.25 c -0.0586,0.769531 0.3125,1.519531 0.97266,1.9375 l -8.48047,15.40625 c -0.0469,-0.02344 -0.0937,-0.04687 -0.14453,-0.06641 -1.08984,-0.414062 -2.30859,0.128907 -2.73047,1.21875 -0.10547,0.28125 -0.14844,0.570313 -0.13281,0.855469 l -17.83203,1.957031 c -0.125,-0.707031 -0.60547,-1.332031 -1.32422,-1.609374 z m 40.63281,-52.445313 17.80469,28.15625 c -0.32031,0.234375 -0.58203,0.558594 -0.73438,0.957031 -0.10937,0.28125 -0.15234,0.570313 -0.13671,0.851563 l -23.70704,2.574219 c -0.125,-0.707032 -0.60546,-1.335938 -1.32421,-1.609376 -0.0547,-0.02344 -0.10938,-0.03906 -0.16407,-0.05469 l 6.91407,-30.640625 c 0.46875,0.07422 0.9414,-0.01563 1.34765,-0.234375 z m -29.03125,13.472656 c 0.72266,0.277344 1.50391,0.128907 2.07031,-0.320312 l 16.58985,18.277343 c -0.19531,0.199219 -0.35156,0.441407 -0.45703,0.71875 -0.043,0.109376 -0.0703,0.21875 -0.0937,0.332032 l -37.9961,-5.246094 c 0.0312,-0.4375 -0.0742,-0.871094 -0.29297,-1.238281 l 19.26954,-13.195313 c 0.23046,0.292969 0.53515,0.53125 0.91015,0.671875 z M 204.77734,82.324219 217.875,63.125 c 0.0977,0.0625 0.20703,0.113281 0.32031,0.160156 0.44141,0.167969 0.90625,0.175782 1.32813,0.05469 l 8.23828,23.371094 c -0.51172,0.214843 -0.9336,0.628906 -1.14844,1.1875 -0.0312,0.07812 -0.0547,0.160156 -0.0742,0.238281 L 205.57424,84.24219 c 0.0898,-0.734376 -0.21485,-1.46875 -0.79688,-1.917969 z M 290.5625,65.546875 c 0.18359,-0.195313 0.33203,-0.425781 0.43359,-0.691406 0.22266,-0.582031 0.16797,-1.207031 -0.10156,-1.722657 L 309.5625,51.949219 c 0.23437,0.339843 0.57031,0.617187 0.98437,0.773437 0.25,0.09766 0.50782,0.140625 0.76172,0.140625 l 2.32032,35.546875 c -0.39454,0.05469 -0.76954,0.21875 -1.07813,0.472656 z m -72.84766,-27.121094 21.9336,6.8125 c -0.13672,0.550781 -0.0391,1.113281 0.23437,1.578125 l -19.26953,13.195313 c -0.22656,-0.292969 -0.53516,-0.53125 -0.90625,-0.671875 -0.30078,-0.117188 -0.60937,-0.15625 -0.91016,-0.132813 l -2.64062,-19.464843 c 0.68359,-0.136719 1.28906,-0.613282 1.55859,-1.316407 z m -28.92187,23.09375 c 0.0742,-0.195312 0.11719,-0.390625 0.13281,-0.585937 l 27.91406,0.472656 c 0.0273,0.613281 0.32422,1.191406 0.8125,1.570312 l -13.09765,19.199219 c -0.10157,-0.0625 -0.20703,-0.117187 -0.32032,-0.160156 -0.64453,-0.246094 -1.33203,-0.152344 -1.875,0.183594 L 188.15625,62.398438 c 0.27734,-0.226563 0.5,-0.523438 0.63672,-0.878907 z m -7.4961,31.800781 c 0.16797,-0.445312 0.17579,-0.910156 0.0547,-1.335937 l 20.1836,-7.164063 c 0.21875,0.507813 0.63281,0.929688 1.1875,1.140626 0.29687,0.113281 0.60546,0.15625 0.90234,0.132812 l 4.72266,35.42578 c -0.34766,0.0703 -0.67188,0.22266 -0.94532,0.44922 L 180.86719,94.003906 c 0.17968,-0.195312 0.32812,-0.421875 0.42968,-0.683594 z m 111.30079,25.023438 -30.05469,-11.08203 c 0.16406,-0.55078 0.0937,-1.125 -0.16406,-1.60156 l 18.33593,-11.371098 c 0.23438,0.328126 0.5625,0.59375 0.96485,0.75 0.51172,0.195313 1.05078,0.175782 1.51953,-0.0039 l 10.32422,22.304688 c -0.39844,0.21485 -0.73047,0.5625 -0.92578,1.00391 z m -8.07032,-25.582031 c -0.10547,-0.730469 -0.59765,-1.386719 -1.33593,-1.667969 -0.0508,-0.01953 -0.10547,-0.03516 -0.16016,-0.05078 l 5.65234,-24.85547 c 0.60938,0.09766 1.22266,-0.07813 1.6836,-0.460938 L 312.35937,89.0625 c -0.18359,0.195312 -0.33203,0.425781 -0.43359,0.691406 -0.0977,0.257813 -0.14062,0.527344 -0.13672,0.792969 z m 30.12891,-4.226563 c -0.25,-0.09766 -0.50781,-0.140625 -0.75781,-0.136718 L 311.57422,52.84375 c 0.74609,-0.09375 1.41406,-0.585938 1.70312,-1.339844 0.41797,-1.085937 -0.1289,-2.308594 -1.21875,-2.726562 -1.01953,-0.390625 -2.15234,0.0625 -2.63672,1.011718 L 270.94922,33.097656 c 0.39062,-1.078125 -0.15625,-2.277344 -1.23438,-2.6875 -1.08593,-0.417968 -2.30859,0.128906 -2.72656,1.21875 -0.10547,0.269532 -0.14844,0.554688 -0.14062,0.828125 l -49.02344,4.875 c -0.11719,-0.714843 -0.60156,-1.355469 -1.33203,-1.632812 -1.08985,-0.414063 -2.3125,0.128906 -2.72657,1.21875 -0.26171,0.679687 -0.14843,1.410156 0.24219,1.96875 l -25.625,20.460937 c -0.21484,-0.238281 -0.48828,-0.433594 -0.80859,-0.554687 -1.08985,-0.417969 -2.3125,0.128906 -2.72656,1.21875 -0.41797,1.085937 0.125,2.308593 1.21875,2.726562 0.0469,0.01563 0.0937,0.03125 0.14062,0.04297 l -6.53125,27.703125 c -0.97266,-0.167969 -1.96094,0.371094 -2.32812,1.328125 -0.41797,1.089844 0.1289,2.308594 1.21875,2.726562 0.73828,0.28125 1.54296,0.121094 2.10937,-0.351562 l 26.53516,27.964839 c -0.17969,0.19141 -0.32813,0.42188 -0.42578,0.6836 -0.41797,1.08984 0.1289,2.30859 1.21875,2.72656 1.08984,0.41797 2.3125,-0.12891 2.72656,-1.21875 0.16406,-0.42578 0.17969,-0.87109 0.0742,-1.28516 l 47.7539,-15.62109 c 0.21094,0.53125 0.63282,0.97266 1.20703,1.19141 1.05469,0.40625 2.23047,-0.0937 2.6836,-1.11719 l 30.05469,11.08203 c -0.31641,1.05078 0.22656,2.17969 1.26953,2.57813 1.08984,0.41406 2.3125,-0.12891 2.73047,-1.21875 0.33984,-0.89454 0.0351,-1.875 -0.6875,-2.42579 l 17.01562,-25.199214 c 0.10156,0.05469 0.20313,0.109375 0.3125,0.152344 1.08984,0.414062 2.3125,-0.128907 2.73047,-1.21875 0.41797,-1.089844 -0.12891,-2.3125 -1.21875,-2.726563"
           fill-opacity="1"
           fill-rule="nonzero"
           id="path2768" /></g><g
         clip-path="url(#145f13901d)"
         id="g2774"><path
           fill="#ffffff"
           d="m 224.01562,134.91016 c -0.48046,0 -0.92578,0.125 -1.33984,0.37109 l -49.47266,-27.58203 c 0.1875,-0.35938 0.28907,-0.74219 0.30469,-1.14453 l 67.83203,1.15234 c 0,-0.0352 -0.0195,-0.0703 -0.0312,-0.10547 l -67.80078,-1.15234 c 0,-0.0937 -0.004,-0.19141 -0.0156,-0.28516 l 58.40625,-7.730466 c 0.0977,0.167968 0.21484,0.316406 0.35937,0.449218 l 0.52735,0.417969 c 0.40234,0.238281 0.83984,0.355469 1.30468,0.355469 l 0.69141,-0.09375 c 0.44141,-0.121094 0.82422,-0.34375 1.14453,-0.671875 l 0.46875,-0.464844 c 0.25,-0.234375 0.42969,-0.511719 0.53906,-0.835937 0.16407,-0.3125 0.23828,-0.644532 0.22266,-1 0.0156,-0.359375 -0.0586,-0.699219 -0.22656,-1.015625 -0.10938,-0.328125 -0.28516,-0.605469 -0.53907,-0.835938 l -0.52343,-0.414062 c -0.40625,-0.238281 -0.84375,-0.355469 -1.3125,-0.355469 l -0.6875,0.09375 c -0.44141,0.121094 -0.82422,0.34375 -1.14453,0.667969 l -0.46875,0.472656 c -0.25,0.230469 -0.42969,0.507813 -0.53907,0.832031 -0.16406,0.3125 -0.23828,0.648438 -0.22265,1.003906 -0.0156,0.351563 0.0586,0.6875 0.22265,1 0.0352,0.09766 0.0742,0.195313 0.125,0.285157 l -58.36328,7.734371 c -0.0391,-0.25 -0.10937,-0.49218 -0.21875,-0.71875 l 29.41016,-15.218746 -0.35156,-0.05469 -29.15235,15.085936 c -0.25781,-0.45703 -0.62109,-0.80859 -1.08594,-1.04687 -0.46875,-0.24219 -0.96093,-0.33594 -1.48437,-0.28125 -0.52344,0.0547 -0.98828,0.25 -1.39453,0.58203 -0.40625,0.33203 -0.6875,0.75 -0.84766,1.25391 l -21.33984,-6.3086 c 0.20703,-1.425781 -0.6211,-3.027343 -2.47266,-3.027343 -3.33984,0 -3.34375,5.203123 0,5.203123 1.45313,0 2.25781,-0.96875 2.45703,-2.08203 l 21.32813,6.31641 c -0.0625,0.22656 -0.0937,0.46094 -0.0937,0.69531 0,0.0195 0,0.0391 0,0.0586 l -29.1211,1.1875 c 0,0.0352 -0.0234,0.0703 -0.0352,0.10546 l 29.16406,-1.1914 c 0.0352,0.59765 0.25,1.12109 0.64063,1.57422 l -35.51172,32.1914 -0.0156,0.15625 35.59766,-32.26172 c 0.4375,0.46875 0.97265,0.73829 1.60547,0.81641 l -2.95703,29.54687 c -0.0312,0 -0.0586,0 -0.0898,0 -3.1914,0 -3.33594,4.75 -0.41797,5.17188 l -5.7539,57.68359 c -0.1211,-0.0117 -0.24219,-0.0195 -0.36328,-0.0195 -0.35547,0 -0.70704,0.043 -1.05469,0.13281 -0.34766,0.0937 -0.67578,0.22657 -0.98828,0.40235 -0.3125,0.17578 -0.59375,0.38672 -0.85157,0.63672 -0.25781,0.25 -0.48046,0.52734 -0.66406,0.83593 -0.18359,0.30469 -0.32812,0.63282 -0.42969,0.97657 -0.10156,0.34375 -0.15625,0.69531 -0.16796,1.05468 -0.0117,0.35547 0.0234,0.71094 0.10546,1.0625 0.0781,0.34766 0.20313,0.67969 0.3711,1 0.16406,0.31641 0.37109,0.60547 0.61328,0.8711 0.23828,0.26562 0.51172,0.49609 0.8125,0.6875 0.30078,0.19531 0.62109,0.34765 0.96094,0.46094 0.33984,0.10937 0.6875,0.17578 1.04687,0.19531 0.35547,0.0234 0.71094,-0.004 1.0625,-0.0742 0.34766,-0.0703 0.6836,-0.18359 1.00781,-0.34375 0.32032,-0.15625 0.61719,-0.35547 0.88672,-0.58984 0.26953,-0.23438 0.50782,-0.5 0.70703,-0.79688 0.20313,-0.29297 0.36329,-0.60937 0.48438,-0.94922 0.12109,-0.33594 0.19531,-0.68359 0.22656,-1.04297 0.0312,-0.35547 0.0156,-0.71093 -0.043,-1.0664 -0.0625,-0.35157 -0.16797,-0.69141 -0.3164,-1.01953 -0.14844,-0.32813 -0.33594,-0.62891 -0.5625,-0.90625 -0.22657,-0.27735 -0.48438,-0.52344 -0.77344,-0.73438 -0.28906,-0.21094 -0.60156,-0.37891 -0.93359,-0.51172 -0.33594,-0.1289 -0.67969,-0.21484 -1.03516,-0.2539 l 5.74609,-57.67969 c 0.10547,0.008 0.21485,0.0156 0.32032,0.0156 3.26953,0 3.34375,-4.99609 0.19921,-5.20312 l 2.94922,-29.55469 c 0.0703,0 0.13672,0 0.20703,0 0.46875,0 0.91016,-0.11719 1.31641,-0.35156 0.40625,-0.23438 0.73047,-0.55859 0.96484,-0.96484 l 49.4336,27.57421 c -0.19141,0.125 -0.36328,0.27344 -0.51563,0.44532 -0.15234,0.16796 -0.28125,0.35546 -0.38672,0.55859 -0.10546,0.20312 -0.17968,0.41797 -0.23046,0.64062 -0.0508,0.22657 -0.0703,0.45313 -0.0586,0.67969 0.008,0.23047 0.0469,0.45313 0.11328,0.67188 0.0664,0.21875 0.16407,0.42578 0.28125,0.62109 0.1211,0.19141 0.26563,0.36719 0.4336,0.52734 0.16406,0.15625 0.34765,0.28907 0.55078,0.39844 0.19922,0.10938 0.41015,0.19141 0.63281,0.24219 0.22266,0.0547 0.44922,0.082 0.67578,0.0742 0.23047,-0.004 0.45313,-0.0352 0.67188,-0.10156 0.21875,-0.0625 0.42968,-0.15235 0.625,-0.26954 0.19531,-0.11718 0.375,-0.25781 0.53515,-0.42187 0.16016,-0.16016 0.29688,-0.34375 0.41016,-0.54297 0.10937,-0.19922 0.19531,-0.41016 0.25391,-0.62891 0.0586,-0.22265 0.0898,-0.44921 0.0898,-0.67578 l 0.0234,-0.0469 -0.0273,-0.0156 c -0.008,-0.34765 -0.082,-0.67578 -0.21875,-0.99609 -0.13672,-0.31641 -0.32812,-0.59375 -0.57422,-0.83594 -0.24609,-0.24219 -0.53125,-0.42578 -0.84765,-0.55859 -0.32031,-0.12891 -0.65235,-0.19531 -0.9961,-0.19531 z m 0,0"
           fill-opacity="1"
           fill-rule="nonzero"
           id="path2772" /></g><g
         clip-path="url(#5eaeca7199)"
         id="g2778"><path
           fill="#ffffff"
           d="m 252.48828,90.003906 c -2.30078,0 -2.86719,2.6875 -1.69531,4.007813 L 207.75,136.11719 c -0.0586,-0.22657 -0.15234,-0.4375 -0.28125,-0.62891 -0.13281,-0.19531 -0.28906,-0.35937 -0.47656,-0.5 -0.1875,-0.14062 -0.39453,-0.24219 -0.61719,-0.3125 -0.22266,-0.0703 -0.45313,-0.0977 -0.68359,-0.0898 -2.58204,0 -2.85157,3.58593 -0.78907,4.32812 L 174.75,168.39453 c -0.3125,-0.29297 -0.66797,-0.51953 -1.0625,-0.67578 -0.39844,-0.15625 -0.8125,-0.23438 -1.23828,-0.23438 -0.42969,0.004 -0.83985,0.082 -1.23828,0.24219 -0.39453,0.16016 -0.75,0.38672 -1.0586,0.67969 l -14.97656,-14.51953 c 0.66406,-1.16406 0.12109,-3.03516 -1.63281,-3.03516 -2.53906,0 -2.54297,3.9375 0,3.9375 0.60937,0.0195 1.10547,-0.20703 1.48437,-0.68359 l 14.94141,14.48828 c -0.51563,0.57422 -0.80078,1.24219 -0.84766,2.01172 l -21.91015,-0.5586 c -0.20313,-0.24218 -0.44922,-0.42968 -0.73438,-0.5664 -0.28515,-0.13672 -0.58594,-0.21094 -0.90234,-0.21875 -0.31641,-0.008 -0.6211,0.0508 -0.91406,0.17187 -0.29297,0.1211 -0.54688,0.29688 -0.76172,0.53125 l -24.09766,-0.61718 c 0.0312,0.0898 0.0625,0.17968 0.0937,0.26562 l 23.82031,0.60547 c -0.8164,1.3125 -0.21093,3.5 1.80469,3.5 1.97266,0 2.59375,-2.08594 1.86719,-3.41016 l 21.73047,0.55078 c 0,0.13672 0.0117,0.27344 0.0273,0.40625 l -44.93359,7.95313 0.125,0.24219 44.85547,-7.9336 c 0.0703,0.30469 0.17968,0.59375 0.32812,0.86719 l -35.21875,19.89844 c -0.42969,-0.56641 -0.99609,-0.83203 -1.70703,-0.80469 -2.875,0 -2.89063,4.46094 0,4.46094 2.04297,0 2.63281,-2.24219 1.78125,-3.54688 l 35.20312,-19.8789 c 0.23438,0.39062 0.53516,0.72265 0.90235,0.99218 0.36719,0.26954 0.77344,0.45313 1.21875,0.55469 0.44531,0.10547 0.89453,0.11719 1.34375,0.0352 0.44922,-0.082 0.86328,-0.2461 1.24609,-0.4961 l 23.17969,32.40235 c -0.96875,1.45703 -0.3125,3.98047 1.98047,3.98047 3.21875,0 3.22265,-4.98438 0,-4.98438 -0.73047,-0.0273 -1.33594,0.23828 -1.81641,0.78516 l -23.1289,-32.33594 c 0.29687,-0.22656 0.54687,-0.49219 0.75,-0.80469 0.20703,-0.3125 0.35546,-0.64453 0.44531,-1.00781 0.0937,-0.35937 0.12109,-0.72656 0.0898,-1.09375 -0.0312,-0.37109 -0.12109,-0.72656 -0.27344,-1.06641 l 18.63672,-9.03906 c 0.0312,0.1211 0.0781,0.23438 0.13672,0.34766 0.17969,0.40625 0.45313,0.73047 0.82031,0.97656 0.3711,0.25 0.77735,0.37891 1.21875,0.39453 l 0.59766,-0.082 c 0.37891,-0.10547 0.70703,-0.29687 0.98438,-0.57422 l 0.35156,-0.44922 c 0.20312,-0.34765 0.30469,-0.72265 0.30469,-1.125 v -0.44922 c 0.0156,-0.30078 -0.0508,-0.58984 -0.19141,-0.85546 -0.0234,-0.0703 -0.0469,-0.13282 -0.082,-0.19922 l 14.52344,-7.04297 -0.11329,-0.23828 -14.53906,7.05468 c -0.0781,-0.10937 -0.16406,-0.20703 -0.26562,-0.29296 -0.44532,-0.41407 -0.96875,-0.62891 -1.57813,-0.65625 l -0.59375,0.082 c -0.3789,0.10547 -0.70703,0.29687 -0.98437,0.57422 -0.11719,0.14843 -0.23438,0.30078 -0.35157,0.44921 -0.20312,0.34766 -0.30468,0.72266 -0.30468,1.125 v 0.44922 c -0.008,0.0781 -0.008,0.16016 0,0.23828 l -18.6836,9.07422 c -0.1289,-0.23828 -0.28515,-0.46093 -0.46484,-0.66406 l 30.25391,-29.58594 c 0.16796,0.0352 0.33593,0.0508 0.50781,0.0508 1.61328,0 2.32422,-1.39843 2.1289,-2.625 l 43.15235,-42.222651 c 0.4375,0.367187 0.9375,0.542969 1.50781,0.527343 3.04688,0 3.0625,-4.722656 0,-4.722656 z m 0,0"
           fill-opacity="1"
           fill-rule="nonzero"
           id="path2776" /></g><path
         fill="#545454"
         d="m 102.01953,85.289062 c -0.30469,0 -0.55469,-0.25 -0.55469,-0.554687 0,-0.308594 0.25,-0.558594 0.55469,-0.558594 0.3125,0 0.5586,0.25 0.5586,0.558594 0,0.304687 -0.2461,0.554687 -0.5586,0.554687"
         fill-opacity="1"
         fill-rule="nonzero"
         id="path2780" /><g
         clip-path="url(#0d6b5d83bf)"
         id="g2784"><path
           fill="#545454"
           d="m 107.05469,73.019531 c 0,0.242188 -0.19922,0.441407 -0.44531,0.441407 -0.24219,0 -0.44141,-0.199219 -0.44141,-0.441407 0,-0.246093 0.19922,-0.441406 0.44141,-0.441406 0.24609,0 0.44531,0.195313 0.44531,0.441406"
           fill-opacity="1"
           fill-rule="nonzero"
           id="path2782" /></g><g
         clip-path="url(#6c63f7cf5a)"
         id="g2788"><path
           fill="#545454"
           d="m 64.996094,28.625 c 0,0.242188 -0.203125,0.441406 -0.445313,0.441406 -0.242187,0 -0.441406,-0.199218 -0.441406,-0.441406 0,-0.242188 0.199219,-0.441406 0.441406,-0.441406 0.242188,0 0.445313,0.199218 0.445313,0.441406"
           fill-opacity="1"
           fill-rule="nonzero"
           id="path2786" /></g><path
         fill="#545454"
         d="m 75.082031,70.355469 c -0.496093,0 -0.898437,-0.398438 -0.898437,-0.894531 0,-0.492188 0.402344,-0.894532 0.898437,-0.894532 0.496094,0 0.898438,0.402344 0.898438,0.894532 0,0.496093 -0.402344,0.894531 -0.898438,0.894531"
         fill-opacity="1"
         fill-rule="nonzero"
         id="path2790" /><path
         fill="#545454"
         d="m 57.332031,78.453125 c -0.308593,0 -0.558593,-0.246094 -0.558593,-0.554687 0,-0.304688 0.25,-0.554688 0.558593,-0.554688 0.304688,0 0.554688,0.25 0.554688,0.554688 0,0.308593 -0.25,0.554687 -0.554688,0.554687"
         fill-opacity="1"
         fill-rule="nonzero"
         id="path2792" /><path
         fill="#545454"
         d="m 97.269531,67.785156 c -0.414062,0 -0.746093,-0.332031 -0.746093,-0.742187 0,-0.410157 0.332031,-0.742188 0.746093,-0.742188 0.410157,0 0.742188,0.332031 0.742188,0.742188 0,0.410156 -0.332031,0.742187 -0.742188,0.742187"
         fill-opacity="1"
         fill-rule="nonzero"
         id="path2794" /><g
         clip-path="url(#43ba134a87)"
         id="g2798"><path
           fill="#545454"
           d="m 29.796875,39.542969 c -0.410156,0 -0.746094,-0.335938 -0.746094,-0.746094 0,-0.410156 0.335938,-0.742187 0.746094,-0.742187 0.410156,0 0.746094,0.332031 0.746094,0.742187 0,0.410156 -0.335938,0.746094 -0.746094,0.746094"
           fill-opacity="1"
           fill-rule="nonzero"
           id="path2796" /></g><path
         fill="#545454"
         d="m 53.253906,61.199219 c -0.824218,0 -1.488281,-0.664063 -1.488281,-1.480469 0,-0.820312 0.664063,-1.484375 1.488281,-1.484375 0.820313,0 1.488282,0.664063 1.488282,1.484375 0,0.816406 -0.667969,1.480469 -1.488282,1.480469"
         fill-opacity="1"
         fill-rule="nonzero"
         id="path2800" /><path
         fill="#545454"
         d="m 49.253906,50.308594 c -3.191406,0 -5.777344,-2.578125 -5.777344,-5.753906 0,-3.179688 2.585938,-5.757813 5.777344,-5.757813 3.1875,0 5.773438,2.578125 5.773438,5.757813 0,3.175781 -2.585938,5.753906 -5.773438,5.753906"
         fill-opacity="1"
         fill-rule="nonzero"
         id="path2802" /><g
         clip-path="url(#115b7fb7a7)"
         id="g2806"><path
           fill="#545454"
           d="m 85.34375,92.660156 c -3.1875,0 -5.773438,-2.578125 -5.773438,-5.753906 0,-3.179688 2.585938,-5.753906 5.773438,-5.753906 3.191406,0 5.777344,2.574218 5.777344,5.753906 0,3.175781 -2.585938,5.753906 -5.777344,5.753906"
           fill-opacity="1"
           fill-rule="nonzero"
           id="path2804" /></g><path
         fill="#545454"
         d="m 75.554688,48.910156 c -0.824219,0 -1.484376,-0.664062 -1.484376,-1.480468 0,-0.816407 0.660157,-1.476563 1.484376,-1.476563 0.816406,0 1.480468,0.660156 1.480468,1.476563 0,0.816406 -0.664062,1.480468 -1.480468,1.480468"
         fill-opacity="1"
         fill-rule="nonzero"
         id="path2808" /><path
         fill="#545454"
         d="m 42.625,80.839844 c -0.394531,0 -0.71875,-0.320313 -0.71875,-0.714844 0,-0.394531 0.324219,-0.710938 0.71875,-0.710938 0.394531,0 0.714844,0.316407 0.714844,0.710938 0,0.394531 -0.320313,0.714844 -0.714844,0.714844"
         fill-opacity="1"
         fill-rule="nonzero"
         id="path2810" /><path
         fill="#545454"
         d="m 40.699219,75.605469 c -1.53125,0 -2.773438,-1.242188 -2.773438,-2.769531 0,-1.527344 1.242188,-2.765626 2.773438,-2.765626 1.535156,0 2.777343,1.238282 2.777343,2.765626 0,1.527343 -1.242187,2.769531 -2.777343,2.769531"
         fill-opacity="1"
         fill-rule="nonzero"
         id="path2812" /><path
         fill="#545454"
         d="m 130.26562,74.453125 c -0.21093,0 -0.3789,-0.171875 -0.3789,-0.382813 0,-0.207031 0.16797,-0.378906 0.3789,-0.378906 0.21094,0 0.38282,0.171875 0.38282,0.378906 0,0.210938 -0.17188,0.382813 -0.38282,0.382813"
         fill-opacity="1"
         fill-rule="nonzero"
         id="path2814" /><g
         clip-path="url(#07e257008a)"
         id="g2818"><path
           fill="#545454"
           d="m 133.70312,66.035156 c 0,0.167969 -0.13671,0.304688 -0.30468,0.304688 -0.16797,0 -0.30078,-0.136719 -0.30078,-0.304688 0,-0.167968 0.13281,-0.304687 0.30078,-0.304687 0.16797,0 0.30468,0.136719 0.30468,0.304687"
           fill-opacity="1"
           fill-rule="nonzero"
           id="path2816" /></g><g
         clip-path="url(#c9e0073419)"
         id="g2822"><path
           fill="#545454"
           d="m 104.98828,35.578125 c 0,0.167969 -0.13672,0.304687 -0.30469,0.304687 -0.16406,0 -0.30078,-0.136718 -0.30078,-0.304687 0,-0.167969 0.13672,-0.304687 0.30078,-0.304687 0.16797,0 0.30469,0.136718 0.30469,0.304687"
           fill-opacity="1"
           fill-rule="nonzero"
           id="path2820" /></g><path
         fill="#545454"
         d="m 111.875,64.207031 c -0.33984,0 -0.61328,-0.273437 -0.61328,-0.613281 0,-0.335938 0.27344,-0.613281 0.61328,-0.613281 0.33984,0 0.61328,0.277343 0.61328,0.613281 0,0.339844 -0.27344,0.613281 -0.61328,0.613281"
         fill-opacity="1"
         fill-rule="nonzero"
         id="path2824" /><path
         fill="#545454"
         d="m 99.753906,69.765625 c -0.207031,0 -0.378906,-0.171875 -0.378906,-0.382813 0,-0.210937 0.171875,-0.378906 0.378906,-0.378906 0.210938,0 0.382814,0.167969 0.382814,0.378906 0,0.210938 -0.171876,0.382813 -0.382814,0.382813"
         fill-opacity="1"
         fill-rule="nonzero"
         id="path2826" /><path
         fill="#545454"
         d="m 127.01953,62.445312 c -0.28125,0 -0.50781,-0.230468 -0.50781,-0.511718 0,-0.28125 0.22656,-0.507813 0.50781,-0.507813 0.28125,0 0.51172,0.226563 0.51172,0.507813 0,0.28125 -0.23047,0.511718 -0.51172,0.511718"
         fill-opacity="1"
         fill-rule="nonzero"
         id="path2828" /><g
         clip-path="url(#62beabb9fa)"
         id="g2832"><path
           fill="#545454"
           d="m 80.957031,43.066406 c -0.277343,0 -0.507812,-0.226562 -0.507812,-0.507812 0,-0.28125 0.230469,-0.511719 0.507812,-0.511719 0.28125,0 0.511719,0.230469 0.511719,0.511719 0,0.28125 -0.230469,0.507812 -0.511719,0.507812"
           fill-opacity="1"
           fill-rule="nonzero"
           id="path2830" /></g><path
         fill="#545454"
         d="m 96.972656,57.925781 c -0.5625,0 -1.015625,-0.453125 -1.015625,-1.015625 0,-0.5625 0.453125,-1.019531 1.015625,-1.019531 0.5625,0 1.015625,0.457031 1.015625,1.019531 0,0.5625 -0.453125,1.015625 -1.015625,1.015625"
         fill-opacity="1"
         fill-rule="nonzero"
         id="path2834" /><path
         fill="#545454"
         d="m 94.242188,50.453125 c -2.179688,0 -3.945313,-1.765625 -3.945313,-3.945313 0,-2.183593 1.765625,-3.949218 3.945313,-3.949218 2.175781,0 3.941406,1.765625 3.941406,3.949218 0,2.179688 -1.765625,3.945313 -3.941406,3.945313"
         fill-opacity="1"
         fill-rule="nonzero"
         id="path2836" /><g
         clip-path="url(#08764c1f27)"
         id="g2840"><path
           fill="#545454"
           d="m 118.87891,79.511719 c -2.17578,0 -3.94141,-1.769531 -3.94141,-3.949219 0,-2.179688 1.76563,-3.949219 3.94141,-3.949219 2.17968,0 3.94531,1.769531 3.94531,3.949219 0,2.179688 -1.76563,3.949219 -3.94531,3.949219"
           fill-opacity="1"
           fill-rule="nonzero"
           id="path2838" /></g><path
         fill="#545454"
         d="m 112.19531,49.492188 c -0.55859,0 -1.01172,-0.453126 -1.01172,-1.011719 0,-0.5625 0.45313,-1.015625 1.01172,-1.015625 0.5586,0 1.01563,0.453125 1.01563,1.015625 0,0.558593 -0.45703,1.011719 -1.01563,1.011719"
         fill-opacity="1"
         fill-rule="nonzero"
         id="path2842" /><path
         fill="#545454"
         d="m 89.714844,71.402344 c -0.269532,0 -0.488282,-0.21875 -0.488282,-0.492188 0,-0.269531 0.21875,-0.488281 0.488282,-0.488281 0.269531,0 0.488281,0.21875 0.488281,0.488281 0,0.273438 -0.21875,0.492188 -0.488281,0.492188"
         fill-opacity="1"
         fill-rule="nonzero"
         id="path2844" /><path
         fill="#545454"
         d="m 88.402344,67.808594 c -1.046875,0 -1.894532,-0.851563 -1.894532,-1.898438 0,-1.046875 0.847657,-1.898437 1.894532,-1.898437 1.046875,0 1.894531,0.851562 1.894531,1.898437 0,1.046875 -0.847656,1.898438 -1.894531,1.898438"
         fill-opacity="1"
         fill-rule="nonzero"
         id="path2846" /><g
         clip-path="url(#d5659457d0)"
         id="g2854"><g
           clip-path="url(#43dc609abd)"
           id="g2852"><g
             clip-path="url(#98fddc0f94)"
             id="g2850"><path
               fill="#545454"
               d="m 75.082031,99.03125 c -0.164062,0.132812 -0.402343,0.109375 -0.535156,-0.05469 -0.132813,-0.164062 -0.105469,-0.402343 0.05469,-0.535156 0.164063,-0.132812 0.40625,-0.109375 0.535157,0.05469 0.132812,0.164062 0.109375,0.402344 -0.05469,0.535156"
               fill-opacity="1"
               fill-rule="nonzero"
               id="path2848" /></g></g></g><g
         clip-path="url(#9e9c8284ff)"
         id="g2862"><g
           clip-path="url(#6f34accafe)"
           id="g2860"><g
             clip-path="url(#198cbad529)"
             id="g2858"><path
               fill="#545454"
               d="m 72.449219,90.328125 c 0.105469,0.132813 0.08594,0.324219 -0.04297,0.425781 -0.128906,0.105469 -0.320312,0.08594 -0.425781,-0.04297 -0.105469,-0.128907 -0.08594,-0.320313 0.04297,-0.425782 0.128906,-0.105468 0.320312,-0.08594 0.425781,0.04297"
               fill-opacity="1"
               fill-rule="nonzero"
               id="path2856" /></g></g></g><g
         clip-path="url(#9f927a76f4)"
         id="g2870"><g
           clip-path="url(#e2678fe54e)"
           id="g2868"><g
             clip-path="url(#4e0fc2a3ab)"
             id="g2866"><path
               fill="#545454"
               d="m 30.964844,84.75 c 0.105468,0.128906 0.08594,0.320312 -0.04297,0.425781 -0.128906,0.105469 -0.320313,0.08594 -0.425781,-0.04297 -0.105469,-0.132812 -0.08594,-0.324218 0.04297,-0.429687 0.128907,-0.101563 0.320313,-0.08203 0.425782,0.04687"
               fill-opacity="1"
               fill-rule="nonzero"
               id="path2864" /></g></g></g><g
         clip-path="url(#792d47b48e)"
         id="g2878"><g
           clip-path="url(#77ac033abd)"
           id="g2876"><g
             clip-path="url(#f1e15cb417)"
             id="g2874"><path
               fill="#545454"
               d="m 54.34375,102.65625 c -0.261719,0.21094 -0.648438,0.17188 -0.859375,-0.0937 -0.214844,-0.26172 -0.175781,-0.64844 0.08984,-0.86328 0.261719,-0.21094 0.648437,-0.17188 0.859375,0.0937 0.214844,0.26172 0.175781,0.64844 -0.08984,0.86328"
               fill-opacity="1"
               fill-rule="nonzero"
               id="path2872" /></g></g></g><g
         clip-path="url(#c315ab2fca)"
         id="g2886"><g
           clip-path="url(#91b2820295)"
           id="g2884"><g
             clip-path="url(#b34149e780)"
             id="g2882"><path
               fill="#545454"
               d="m 48.429688,114.60156 c -0.164063,0.13282 -0.402344,0.10938 -0.535157,-0.0547 -0.132812,-0.16407 -0.109375,-0.40235 0.05469,-0.53516 0.160156,-0.13281 0.402343,-0.10938 0.535156,0.0547 0.132813,0.16406 0.105469,0.40234 -0.05469,0.53515"
               fill-opacity="1"
               fill-rule="nonzero"
               id="path2880" /></g></g></g><g
         clip-path="url(#94c7d9edf8)"
         id="g2894"><g
           clip-path="url(#6cf0cc9df0)"
           id="g2892"><g
             clip-path="url(#4a66f0f253)"
             id="g2890"><path
               fill="#545454"
               d="m 65,91.746094 c -0.21875,0.179687 -0.539062,0.144531 -0.714844,-0.07422 -0.179687,-0.21875 -0.144531,-0.539063 0.07422,-0.71875 0.21875,-0.175781 0.539063,-0.140625 0.714844,0.07813 C 65.25,91.25 65.21875,91.570312 65,91.746094"
               fill-opacity="1"
               fill-rule="nonzero"
               id="path2888" /></g></g></g><g
         clip-path="url(#02af67dc40)"
         id="g2902"><g
           clip-path="url(#83ab63c45d)"
           id="g2900"><g
             clip-path="url(#43390aeeb7)"
             id="g2898"><path
               fill="#545454"
               d="m 17.015625,105.69922 c -0.21875,0.17578 -0.539063,0.14453 -0.71875,-0.0742 -0.175781,-0.21875 -0.140625,-0.54297 0.07813,-0.71875 0.214844,-0.17578 0.539062,-0.14062 0.714844,0.0742 0.175781,0.21875 0.144531,0.54297 -0.07422,0.71875"
               fill-opacity="1"
               fill-rule="nonzero"
               id="path2896" /></g></g></g><g
         clip-path="url(#0177a5d3c7)"
         id="g2910"><g
           clip-path="url(#73868219ce)"
           id="g2908"><g
             clip-path="url(#3f60524fc2)"
             id="g2906"><path
               fill="#545454"
               d="m 38.8125,107.16016 c -0.4375,0.35156 -1.078125,0.28515 -1.429688,-0.15235 -0.355468,-0.4375 -0.289062,-1.07812 0.148438,-1.42968 0.433594,-0.35547 1.078125,-0.28516 1.429688,0.14843 0.355468,0.4375 0.289062,1.07813 -0.148438,1.4336"
               fill-opacity="1"
               fill-rule="nonzero"
               id="path2904" /></g></g></g><g
         clip-path="url(#7f4371a8ae)"
         id="g2918"><g
           clip-path="url(#db902cc626)"
           id="g2916"><g
             clip-path="url(#cd45898ad6)"
             id="g2914"><path
               fill="#545454"
               d="m 31.984375,103.07422 c -1.691406,1.37109 -4.175781,1.10937 -5.546875,-0.58594 -1.375,-1.6914 -1.117188,-4.17578 0.574219,-5.55078 1.691406,-1.371094 4.175781,-1.109375 5.550781,0.585938 1.371094,1.695312 1.113281,4.179692 -0.578125,5.550782"
               fill-opacity="1"
               fill-rule="nonzero"
               id="path2912" /></g></g></g><g
         clip-path="url(#d905a133da)"
         id="g2926"><g
           clip-path="url(#e93fca54f4)"
           id="g2924"><g
             clip-path="url(#1862408571)"
             id="g2922"><path
               fill="#545454"
               d="M 69.421875,110.12891 C 67.730469,111.5 65.246094,111.23828 63.875,109.54688 62.5,107.85156 62.757812,105.36719 64.449219,103.99609 66.140625,102.625 68.625,102.88672 70,104.58203 c 1.375,1.69141 1.113281,4.17578 -0.578125,5.54688"
               fill-opacity="1"
               fill-rule="nonzero"
               id="path2920" /></g></g></g><g
         clip-path="url(#91c50830ab)"
         id="g2934"><g
           clip-path="url(#badcce552d)"
           id="g2932"><g
             clip-path="url(#db67607ce8)"
             id="g2930"><path
               fill="#545454"
               d="M 45.328125,91.023438 C 44.894531,91.375 44.253906,91.308594 43.902344,90.871094 43.550781,90.4375 43.617188,89.796875 44.050781,89.445312 44.484375,89.09375 45.125,89.160156 45.476562,89.59375 c 0.351563,0.4375 0.285157,1.074219 -0.148437,1.429688"
               fill-opacity="1"
               fill-rule="nonzero"
               id="path2928" /></g></g></g><g
         clip-path="url(#7d6e0e1eae)"
         id="g2942"><g
           clip-path="url(#8e62bd7d63)"
           id="g2940"><g
             clip-path="url(#82ecd48ef8)"
             id="g2938"><path
               fill="#545454"
               d="m 41.660156,122.19531 c -0.210937,0.16797 -0.519531,0.13672 -0.6875,-0.0742 -0.171875,-0.20703 -0.136718,-0.51562 0.07031,-0.6875 0.210937,-0.16796 0.519531,-0.13671 0.6875,0.0742 0.171875,0.21094 0.140625,0.51563 -0.07031,0.6875"
               fill-opacity="1"
               fill-rule="nonzero"
               id="path2936" /></g></g></g><g
         clip-path="url(#06a3fbb404)"
         id="g2950"><g
           clip-path="url(#cf2b4d77e9)"
           id="g2948"><g
             clip-path="url(#e8a16f667f)"
             id="g2946"><path
               fill="#545454"
               d="m 38.378906,120.23047 c -0.816406,0.66016 -2.007812,0.53516 -2.667968,-0.28125 -0.660157,-0.8125 -0.535157,-2.00781 0.277343,-2.66797 0.8125,-0.65625 2.007813,-0.53125 2.667969,0.28125 0.660156,0.81641 0.535156,2.00781 -0.277344,2.66797"
               fill-opacity="1"
               fill-rule="nonzero"
               id="path2944" /></g></g></g><path
         fill="#545454"
         d="m 141.06641,111.51172 c -0.13282,0 -0.24219,-0.10938 -0.24219,-0.24609 0,-0.13672 0.10937,-0.2461 0.24219,-0.2461 0.13281,0 0.24218,0.10938 0.24218,0.2461 0,0.13671 -0.10937,0.24609 -0.24218,0.24609"
         fill-opacity="1"
         fill-rule="nonzero"
         id="path2952" /><g
         clip-path="url(#b74cbeb07c)"
         id="g2956"><path
           fill="#545454"
           d="m 143.24219,106.08984 c 0,0.10547 -0.0859,0.19532 -0.19141,0.19532 -0.10547,0 -0.19141,-0.0898 -0.19141,-0.19532 0,-0.10937 0.0859,-0.19531 0.19141,-0.19531 0.10547,0 0.19141,0.0859 0.19141,0.19531"
           fill-opacity="1"
           fill-rule="nonzero"
           id="path2954" /></g><g
         clip-path="url(#ea56da1074)"
         id="g2960"><path
           fill="#545454"
           d="m 125.04688,86.472656 c 0,0.105469 -0.0898,0.195313 -0.19141,0.195313 -0.10938,0 -0.19531,-0.08984 -0.19531,-0.195313 0,-0.109375 0.0859,-0.195312 0.19531,-0.195312 0.10156,0 0.19141,0.08594 0.19141,0.195312"
           fill-opacity="1"
           fill-rule="nonzero"
           id="path2958" /></g><path
         fill="#545454"
         d="m 129.41016,104.91406 c -0.21485,0 -0.38672,-0.17968 -0.38672,-0.39843 0,-0.21875 0.17187,-0.39454 0.38672,-0.39454 0.21484,0 0.39062,0.17579 0.39062,0.39454 0,0.21875 -0.17578,0.39843 -0.39062,0.39843"
         fill-opacity="1"
         fill-rule="nonzero"
         id="path2962" /><path
         fill="#545454"
         d="m 121.73047,108.49219 c -0.13672,0 -0.24219,-0.10938 -0.24219,-0.2461 0,-0.13671 0.10547,-0.24609 0.24219,-0.24609 0.13281,0 0.23828,0.10938 0.23828,0.24609 0,0.13672 -0.10547,0.2461 -0.23828,0.2461"
         fill-opacity="1"
         fill-rule="nonzero"
         id="path2964" /><path
         fill="#545454"
         d="m 139.01172,103.77734 c -0.17969,0 -0.32422,-0.14843 -0.32422,-0.32812 0,-0.18359 0.14453,-0.32813 0.32422,-0.32813 0.17578,0 0.32031,0.14454 0.32031,0.32813 0,0.17969 -0.14453,0.32812 -0.32031,0.32812"
         fill-opacity="1"
         fill-rule="nonzero"
         id="path2966" /><g
         clip-path="url(#1ced3412a0)"
         id="g2970"><path
           fill="#545454"
           d="m 109.81641,91.296875 c -0.17969,0 -0.32422,-0.148437 -0.32422,-0.332031 0,-0.179688 0.14453,-0.328125 0.32422,-0.328125 0.17578,0 0.32031,0.148437 0.32031,0.328125 0,0.183594 -0.14453,0.332031 -0.32031,0.332031"
           fill-opacity="1"
           fill-rule="nonzero"
           id="path2968" /></g><path
         fill="#545454"
         d="m 119.96484,100.86719 c -0.35546,0 -0.64453,-0.29297 -0.64453,-0.65625 0,-0.363284 0.28907,-0.656252 0.64453,-0.656252 0.35547,0 0.64454,0.292968 0.64454,0.656252 0,0.36328 -0.28907,0.65625 -0.64454,0.65625"
         fill-opacity="1"
         fill-rule="nonzero"
         id="path2972" /><path
         fill="#545454"
         d="m 118.23438,96.054688 c -1.38282,0 -2.5,-1.140626 -2.5,-2.542969 0,-1.40625 1.11718,-2.542969 2.5,-2.542969 1.3789,0 2.5,1.136719 2.5,2.542969 0,1.402343 -1.1211,2.542969 -2.5,2.542969"
         fill-opacity="1"
         fill-rule="nonzero"
         id="path2974" /><g
         clip-path="url(#a33d0b750e)"
         id="g2978"><path
           fill="#545454"
           d="m 133.85156,114.76953 c -1.38281,0 -2.5,-1.14062 -2.5,-2.54297 0,-1.40625 1.11719,-2.54297 2.5,-2.54297 1.37891,0 2.5,1.13672 2.5,2.54297 0,1.40235 -1.12109,2.54297 -2.5,2.54297"
           fill-opacity="1"
           fill-rule="nonzero"
           id="path2976" /></g><path
         fill="#545454"
         d="m 129.61328,95.433594 c -0.35547,0 -0.64062,-0.292969 -0.64062,-0.652344 0,-0.359375 0.28515,-0.652344 0.64062,-0.652344 0.35547,0 0.64453,0.292969 0.64453,0.652344 0,0.359375 -0.28906,0.652344 -0.64453,0.652344"
         fill-opacity="1"
         fill-rule="nonzero"
         id="path2980" /><path
         fill="#545454"
         d="m 115.36719,109.54297 c -0.17188,0 -0.3125,-0.14063 -0.3125,-0.3125 0,-0.17578 0.14062,-0.31641 0.3125,-0.31641 0.16797,0 0.30859,0.14063 0.30859,0.31641 0,0.17187 -0.14062,0.3125 -0.30859,0.3125"
         fill-opacity="1"
         fill-rule="nonzero"
         id="path2982" /><path
         fill="#545454"
         d="m 114.53516,107.23047 c -0.66407,0 -1.20313,-0.54688 -1.20313,-1.22266 0,-0.67578 0.53906,-1.22265 1.20313,-1.22265 0.66406,0 1.19922,0.54687 1.19922,1.22265 0,0.67578 -0.53516,1.22266 -1.19922,1.22266"
         fill-opacity="1"
         fill-rule="nonzero"
         id="path2984" /><g
         clip-path="url(#9b59af9c20)"
         id="g2988"><path
           fill="#545454"
           d="m 232.69531,88.484375 c 0,0.296875 -0.0273,0.589844 -0.0859,0.878906 -0.0586,0.289063 -0.14453,0.570313 -0.25781,0.84375 -0.11328,0.273438 -0.25,0.53125 -0.41406,0.777344 -0.16406,0.246094 -0.35156,0.472656 -0.55859,0.683594 -0.21094,0.207031 -0.4375,0.394531 -0.6836,0.558593 -0.24609,0.164063 -0.5039,0.300782 -0.77734,0.414063 -0.27344,0.113281 -0.55469,0.199219 -0.84375,0.257813 -0.29297,0.05859 -0.58203,0.08594 -0.87891,0.08594 -0.29687,0 -0.58984,-0.02734 -0.8789,-0.08594 -0.28907,-0.05859 -0.57032,-0.144532 -0.84375,-0.257813 -0.27344,-0.113281 -0.53125,-0.25 -0.77735,-0.414063 -0.24609,-0.164062 -0.47265,-0.351562 -0.68359,-0.558593 -0.20703,-0.210938 -0.39453,-0.4375 -0.5586,-0.683594 -0.16406,-0.246094 -0.30078,-0.503906 -0.41406,-0.777344 -0.11328,-0.273437 -0.19922,-0.554687 -0.25781,-0.84375 -0.0586,-0.289062 -0.0859,-0.582031 -0.0859,-0.878906 0,-0.296875 0.0273,-0.585937 0.0859,-0.878906 0.0586,-0.289063 0.14453,-0.570313 0.25781,-0.84375 0.11328,-0.273438 0.25,-0.53125 0.41406,-0.777344 0.16407,-0.246094 0.35157,-0.472656 0.5586,-0.679687 0.21094,-0.210938 0.4375,-0.398438 0.68359,-0.5625 0.2461,-0.164063 0.50391,-0.300782 0.77735,-0.414063 0.27343,-0.113281 0.55468,-0.199219 0.84375,-0.257813 0.28906,-0.05859 0.58203,-0.08594 0.8789,-0.08594 0.29688,0 0.58594,0.02734 0.87891,0.08594 0.28906,0.05859 0.57031,0.144532 0.84375,0.257813 0.27344,0.113281 0.53125,0.25 0.77734,0.414063 0.2461,0.164062 0.47266,0.351562 0.6836,0.5625 0.20703,0.207031 0.39453,0.433593 0.55859,0.679687 0.16406,0.246094 0.30078,0.503906 0.41406,0.777344 0.11328,0.273437 0.19922,0.554687 0.25781,0.84375 0.0586,0.292969 0.0859,0.582031 0.0859,0.878906 z m 0,0"
           fill-opacity="1"
           fill-rule="nonzero"
           id="path2986" /></g><g
         clip-path="url(#ce65f7b402)"
         id="g2992"><path
           fill="#99dfec"
           d="m 316.36328,51.21875 c 0,0.394531 -0.0352,0.785156 -0.11328,1.171875 -0.0781,0.386719 -0.19141,0.761719 -0.33984,1.125 -0.15235,0.363281 -0.33594,0.710937 -0.55469,1.039063 -0.21875,0.328124 -0.46875,0.628906 -0.7461,0.910156 -0.28125,0.277344 -0.58203,0.527344 -0.91015,0.746094 -0.32813,0.21875 -0.67578,0.402343 -1.03906,0.554687 -0.36329,0.148437 -0.73829,0.261719 -1.125,0.339844 -0.38672,0.07813 -0.77735,0.113281 -1.17188,0.113281 -0.39062,0 -0.78125,-0.03516 -1.16797,-0.113281 -0.38672,-0.07813 -0.76172,-0.191407 -1.125,-0.339844 -0.36719,-0.152344 -0.71094,-0.335937 -1.03906,-0.554687 -0.32813,-0.21875 -0.62891,-0.46875 -0.91016,-0.746094 -0.27734,-0.28125 -0.52734,-0.582032 -0.74609,-0.910156 -0.21875,-0.328126 -0.40234,-0.675782 -0.55469,-1.039063 -0.14844,-0.363281 -0.26172,-0.738281 -0.33984,-1.125 -0.0781,-0.386719 -0.11719,-0.777344 -0.11719,-1.171875 0,-0.390625 0.0391,-0.78125 0.11719,-1.167969 0.0781,-0.386719 0.1914,-0.761719 0.33984,-1.125 0.15235,-0.367187 0.33594,-0.710937 0.55469,-1.039062 0.21875,-0.328125 0.46875,-0.628907 0.74609,-0.910157 0.28125,-0.277343 0.58203,-0.527343 0.91016,-0.746093 0.32812,-0.21875 0.67187,-0.402344 1.03906,-0.554688 0.36328,-0.148437 0.73828,-0.261719 1.125,-0.339843 0.38672,-0.07813 0.77735,-0.117188 1.16797,-0.117188 0.39453,0 0.78516,0.03906 1.17188,0.117188 0.38671,0.07812 0.76171,0.191406 1.125,0.339843 0.36328,0.152344 0.71093,0.335938 1.03906,0.554688 0.32812,0.21875 0.6289,0.46875 0.91015,0.746093 0.27735,0.28125 0.52735,0.582032 0.7461,0.910157 0.21875,0.328125 0.40234,0.671875 0.55469,1.039062 0.14843,0.363281 0.26171,0.738281 0.33984,1.125 0.0781,0.386719 0.11328,0.777344 0.11328,1.167969 z m 0,0"
           fill-opacity="1"
           fill-rule="nonzero"
           id="path2990" /></g><g
         clip-path="url(#dd53ecf273)"
         id="g2996"><path
           fill="#e9afaf"
           d="m 192.54297,62.09375 c 0,0.320312 -0.0312,0.640625 -0.0937,0.953125 -0.0625,0.3125 -0.15625,0.617187 -0.27735,0.914063 -0.125,0.296874 -0.27343,0.578124 -0.45312,0.84375 -0.17578,0.265624 -0.37891,0.511718 -0.60547,0.738281 -0.22656,0.226562 -0.47266,0.429687 -0.73828,0.605469 -0.26563,0.179687 -0.54688,0.328124 -0.84375,0.449218 -0.29297,0.125 -0.59766,0.214844 -0.91406,0.277344 -0.3125,0.0625 -0.62891,0.09375 -0.94922,0.09375 -0.32031,0 -0.63672,-0.03125 -0.95313,-0.09375 -0.3125,-0.0625 -0.61718,-0.152344 -0.91406,-0.277344 -0.29687,-0.121094 -0.57812,-0.269531 -0.84375,-0.449218 -0.26562,-0.175782 -0.51172,-0.378907 -0.73828,-0.605469 -0.22656,-0.226563 -0.42578,-0.472657 -0.60547,-0.738281 -0.17969,-0.265626 -0.32812,-0.546876 -0.44922,-0.84375 -0.125,-0.296876 -0.21484,-0.601563 -0.27734,-0.914063 -0.0625,-0.3125 -0.0937,-0.632813 -0.0937,-0.953125 0,-0.316406 0.0312,-0.636719 0.0937,-0.949219 0.0625,-0.3125 0.15234,-0.617187 0.27734,-0.914062 0.1211,-0.296875 0.26953,-0.578125 0.44922,-0.84375 0.17969,-0.265625 0.37891,-0.511719 0.60547,-0.738281 0.22656,-0.226563 0.47266,-0.429688 0.73828,-0.605469 0.26563,-0.179688 0.54688,-0.328125 0.84375,-0.453125 0.29688,-0.121094 0.60156,-0.214844 0.91406,-0.277344 0.31641,-0.0625 0.63282,-0.09375 0.95313,-0.09375 0.32031,0 0.63672,0.03125 0.94922,0.09375 0.3164,0.0625 0.62109,0.15625 0.91406,0.277344 0.29687,0.125 0.57812,0.273437 0.84375,0.453125 0.26562,0.175781 0.51172,0.378906 0.73828,0.605469 0.22656,0.226562 0.42969,0.472656 0.60547,0.738281 0.17969,0.265625 0.32812,0.546875 0.45312,0.84375 0.1211,0.296875 0.21485,0.601562 0.27735,0.914062 0.0625,0.3125 0.0937,0.632813 0.0937,0.949219 z m 0,0"
           fill-opacity="1"
           fill-rule="nonzero"
           id="path2994" /></g><g
         clip-path="url(#a13d38005b)"
         id="g3000"><path
           fill="#e9afaf"
           d="m 91.039062,86.542969 c 0,0.394531 -0.03906,0.785156 -0.113281,1.171875 -0.07813,0.386718 -0.191406,0.761718 -0.34375,1.125 -0.148437,0.363281 -0.335937,0.710937 -0.554687,1.039062 -0.21875,0.328125 -0.464844,0.628906 -0.746094,0.910156 -0.277344,0.277344 -0.582031,0.527344 -0.90625,0.746094 -0.328125,0.21875 -0.675781,0.402344 -1.039062,0.550782 -0.363282,0.152343 -0.738282,0.265624 -1.125,0.34375 -0.386719,0.07812 -0.777344,0.113281 -1.171876,0.113281 -0.394531,0 -0.785156,-0.03516 -1.171874,-0.113281 -0.382813,-0.07813 -0.757813,-0.191407 -1.125,-0.34375 -0.363282,-0.148438 -0.707032,-0.332032 -1.035157,-0.550782 -0.328125,-0.21875 -0.632812,-0.46875 -0.910156,-0.746094 -0.277344,-0.28125 -0.527344,-0.582031 -0.746094,-0.910156 -0.21875,-0.328125 -0.402343,-0.675781 -0.554687,-1.039062 -0.152344,-0.363282 -0.265625,-0.738282 -0.339844,-1.125 -0.07813,-0.386719 -0.117188,-0.777344 -0.117188,-1.171875 0,-0.390625 0.03906,-0.78125 0.117188,-1.167969 0.07422,-0.386719 0.1875,-0.761719 0.339844,-1.125 0.152344,-0.367188 0.335937,-0.710938 0.554687,-1.039062 0.21875,-0.328126 0.46875,-0.628907 0.746094,-0.910157 0.277344,-0.277343 0.582031,-0.527343 0.910156,-0.746093 0.328125,-0.21875 0.671875,-0.402344 1.035157,-0.554688 0.367187,-0.148438 0.742187,-0.261719 1.125,-0.339844 0.386718,-0.07813 0.777343,-0.117187 1.171874,-0.117187 0.394532,0 0.785157,0.03906 1.171876,0.117187 0.386718,0.07813 0.761718,0.191406 1.125,0.339844 0.363281,0.152344 0.710937,0.335938 1.039062,0.554688 0.324219,0.21875 0.628906,0.46875 0.90625,0.746093 0.28125,0.28125 0.527344,0.582031 0.746094,0.910157 0.21875,0.328124 0.40625,0.671874 0.554687,1.039062 0.152344,0.363281 0.265625,0.738281 0.34375,1.125 0.07422,0.386719 0.113281,0.777344 0.113281,1.167969 z m 0,0"
           fill-opacity="1"
           fill-rule="nonzero"
           id="path2998" /></g><g
         clip-path="url(#484c1a561c)"
         id="g3004"><path
           fill="#99dfec"
           d="m 40.242188,117.44922 c 0,0.39844 -0.07422,0.78125 -0.226563,1.14844 -0.152344,0.36718 -0.367187,0.6914 -0.648437,0.97265 -0.28125,0.28125 -0.609376,0.5 -0.976563,0.65235 -0.367187,0.15234 -0.75,0.22656 -1.148437,0.22656 -0.394532,0 -0.777344,-0.0742 -1.144532,-0.22656 -0.371094,-0.15235 -0.695312,-0.3711 -0.976562,-0.65235 -0.28125,-0.28125 -0.496094,-0.60547 -0.648438,-0.97265 -0.152344,-0.36719 -0.230468,-0.75 -0.230468,-1.14844 0,-0.39844 0.07812,-0.78125 0.230468,-1.14844 0.152344,-0.36719 0.367188,-0.6914 0.648438,-0.97265 0.28125,-0.28125 0.605468,-0.4961 0.976562,-0.64844 0.367188,-0.15235 0.75,-0.23047 1.144532,-0.23047 0.398437,0 0.78125,0.0781 1.148437,0.23047 0.367187,0.15234 0.695313,0.36719 0.976563,0.64844 0.28125,0.28125 0.496093,0.60546 0.648437,0.97265 0.152344,0.36719 0.226563,0.75 0.226563,1.14844 z m 0,0"
           fill-opacity="1"
           fill-rule="nonzero"
           id="path3002" /></g><g
         clip-path="url(#6b60c0854d)"
         id="g3008"><path
           fill="#99dfec"
           d="m 55.78125,45.1875 c 0,0.417969 -0.03906,0.832031 -0.121094,1.242188 -0.08203,0.410156 -0.203125,0.808593 -0.363281,1.195312 -0.160156,0.386719 -0.355469,0.753906 -0.589844,1.101562 -0.230469,0.347657 -0.496093,0.671876 -0.792969,0.96875 -0.292968,0.292969 -0.617187,0.558594 -0.964843,0.792969 -0.347657,0.230469 -0.714844,0.425781 -1.101563,0.585938 -0.386718,0.160156 -0.785156,0.28125 -1.195312,0.363281 -0.410156,0.08203 -0.824219,0.125 -1.246094,0.125 -0.417969,0 -0.832031,-0.04297 -1.242188,-0.125 -0.410156,-0.08203 -0.808593,-0.203125 -1.195312,-0.363281 -0.386719,-0.160157 -0.753906,-0.355469 -1.101562,-0.585938 -0.347657,-0.234375 -0.671876,-0.5 -0.96875,-0.792969 -0.292969,-0.296874 -0.558594,-0.621093 -0.792969,-0.96875 C 43.875,48.378906 43.679688,48.011719 43.519531,47.625 c -0.160156,-0.386719 -0.28125,-0.785156 -0.363281,-1.195312 -0.08203,-0.410157 -0.125,-0.824219 -0.125,-1.242188 0,-0.417969 0.04297,-0.835938 0.125,-1.246094 0.08203,-0.410156 0.203125,-0.808594 0.363281,-1.195312 0.160157,-0.386719 0.355469,-0.753906 0.585938,-1.101563 0.234375,-0.347656 0.5,-0.671875 0.792969,-0.964843 0.296874,-0.296876 0.621093,-0.5625 0.96875,-0.792969 0.347656,-0.234375 0.714843,-0.429688 1.101562,-0.589844 0.386719,-0.160156 0.785156,-0.28125 1.195312,-0.363281 0.410157,-0.08203 0.824219,-0.121094 1.242188,-0.121094 0.421875,0 0.835938,0.03906 1.246094,0.121094 0.410156,0.08203 0.808594,0.203125 1.195312,0.363281 0.386719,0.160156 0.753906,0.355469 1.101563,0.589844 0.347656,0.230469 0.671875,0.496093 0.964843,0.792969 0.296876,0.292968 0.5625,0.617187 0.792969,0.964843 0.234375,0.347657 0.429688,0.714844 0.589844,1.101563 0.160156,0.386718 0.28125,0.785156 0.363281,1.195312 0.08203,0.410156 0.121094,0.828125 0.121094,1.246094 z m 0,0"
           fill-opacity="1"
           fill-rule="nonzero"
           id="path3006" /></g><g
         clip-path="url(#bf229b0a83)"
         id="g3012"><path
           fill="#e9afaf"
           d="m 128.45703,62.351562 c 0,0.25 -0.0469,0.488282 -0.14453,0.71875 -0.0937,0.230469 -0.23047,0.433594 -0.40625,0.609376 -0.17578,0.175781 -0.37891,0.308593 -0.60547,0.40625 -0.23047,0.09375 -0.46875,0.140624 -0.71875,0.140624 -0.25,0 -0.48828,-0.04687 -0.71875,-0.140624 -0.23047,-0.09766 -0.42969,-0.230469 -0.60547,-0.40625 -0.17578,-0.175782 -0.3125,-0.378907 -0.41015,-0.609376 -0.0937,-0.230468 -0.14063,-0.46875 -0.14063,-0.71875 0,-0.246093 0.0469,-0.488281 0.14063,-0.71875 0.0977,-0.226562 0.23437,-0.429687 0.41015,-0.605468 0.17578,-0.175782 0.375,-0.3125 0.60547,-0.40625 0.23047,-0.09766 0.46875,-0.144532 0.71875,-0.144532 0.25,0 0.48828,0.04688 0.71875,0.144532 0.22656,0.09375 0.42969,0.230468 0.60547,0.40625 0.17578,0.175781 0.3125,0.378906 0.40625,0.605468 0.0977,0.230469 0.14453,0.472657 0.14453,0.71875 z m 0,0"
           fill-opacity="1"
           fill-rule="nonzero"
           id="path3010" /></g></g><text
       xml:space="preserve"
       style="font-style:normal;font-variant:normal;font-weight:normal;font-stretch:normal;font-size:3.88056px;font-family:Chalkboard;-inkscape-font-specification:'Chalkboard, Normal';font-variant-ligatures:normal;font-variant-caps:normal;font-variant-numeric:normal;font-variant-east-asian:normal;fill:#000000;stroke:#000000;stroke-width:0.0264583"
       x="119.97612"
       y="69.947624"
       id="text3319"><tspan
         id="tspan3317"
         style="font-style:normal;font-variant:normal;font-weight:normal;font-stretch:normal;font-size:3.88056px;font-family:Chalkboard;-inkscape-font-specification:'Chalkboard, Normal';font-variant-ligatures:normal;font-variant-caps:normal;font-variant-numeric:normal;font-variant-east-asian:normal;stroke-width:0.0264583"
         x="119.97612"
         y="69.947624"
         sodipodi:role="line">Group</tspan></text><text
       xml:space="preserve"
       style="font-style:normal;font-variant:normal;font-weight:normal;font-stretch:normal;font-size:3.88056px;font-family:Chalkboard;-inkscape-font-specification:'Chalkboard, Normal';font-variant-ligatures:normal;font-variant-caps:normal;font-variant-numeric:normal;font-variant-east-asian:normal;fill:#000000;stroke:#000000;stroke-width:0.0264583"
       x="60.052113"
       y="69.72554"
       id="text3373"><tspan
         sodipodi:role="line"
         id="tspan3371"
         style="stroke-width:0.0264583"
         x="60.052113"
         y="69.72554">Single</tspan></text></g></svg>
