<?xml version="1.0" encoding="UTF-8" standalone="no"?>
<svg
   width="60"
   height="100"
   viewBox="0 0 60 100"
   fill="none"
   version="1.1"
   id="svg287"
   sodipodi:docname="65.svg"
   inkscape:version="1.2.1 (9c6d41e4, 2022-07-14)"
   xmlns:inkscape="http://www.inkscape.org/namespaces/inkscape"
   xmlns:sodipodi="http://sodipodi.sourceforge.net/DTD/sodipodi-0.dtd"
   xmlns="http://www.w3.org/2000/svg"
   xmlns:svg="http://www.w3.org/2000/svg">
  <sodipodi:namedview
     id="namedview289"
     pagecolor="#ffffff"
     bordercolor="#000000"
     borderopacity="0.25"
     inkscape:showpageshadow="2"
     inkscape:pageopacity="0.0"
     inkscape:pagecheckerboard="0"
     inkscape:deskcolor="#d1d1d1"
     showgrid="false"
     inkscape:zoom="0.16166351"
     inkscape:cx="2749.5381"
     inkscape:cy="1444.3581"
     inkscape:window-width="1234"
     inkscape:window-height="747"
     inkscape:window-x="155"
     inkscape:window-y="23"
     inkscape:window-maximized="0"
     inkscape:current-layer="g274" />
  <g
     clip-path="url(#clip0)"
     id="g274"
     transform="translate(-208.04665,98.548412)">
    <rect
       width="961.47943"
       height="1145.3752"
       fill="#ffffff"
       id="rect132"
       x="1442.8435"
       y="792.35992" />
    <path
       d="m 1993,969.5 c 0,-22.92 -18.58,-41.5 -41.5,-41.5 -22.92,0 -41.5,18.58 -41.5,41.5 v 4 c 0,22.92 18.58,41.5 41.5,41.5 22.92,0 41.5,-18.58 41.5,-41.5 z"
       fill="#dfe9f3"
       id="path142" />
    <mask
       id="mask0"
       mask-type="alpha"
       maskUnits="userSpaceOnUse"
       x="839"
       y="885"
       width="80"
       height="145">
      <path
         d="m 876.168,886.343 -21.754,0.388 c -3.279,0.149 -5.83,2.906 -5.724,6.187 1.736,53.944 3.014,86.88 3.835,98.808 -0.616,-0.128 -1.252,-0.193 -1.902,-0.193 -5.523,0 -10,4.701 -10,10.497 0,5.8 4.477,10.5 10,10.5 1.307,0 2.555,-0.26 3.699,-0.74 1.325,6.97 4.574,11.96 14.594,15.32 4.918,1.64 23.088,1.11 27.016,-0.42 6.787,-2.63 9.256,-7.6 10.848,-14.88 h 0.085 0.276 c 5.522,0 10,-4.7 10,-10.5 0,-4.936 -3.248,-9.079 -7.624,-10.199 1.511,-17.985 3.407,-50.628 5.687,-97.926 0.003,-0.063 0.005,-0.126 0.006,-0.189 0.055,-3.313 -2.586,-6.044 -5.899,-6.1 z"
         fill="#ffffff"
         stroke="#000000"
         stroke-width="2.5"
         stroke-linecap="round"
         stroke-linejoin="round"
         id="path176" />
    </mask>
    <path
       fill-rule="evenodd"
       clip-rule="evenodd"
       d="m 2161.98,1569.55 -189.34,47.26 131.03,59.32 h 54 l -2.91,45.05 c -0.35,5.38 3.74,10.03 9.12,10.38 0.63,0.04 1.25,0.02 1.87,-0.06 7.18,-0.92 13.2,-5.87 15.48,-12.74 l 12.14,-36.64 c 4.78,-14.4 5.66,-29.82 2.55,-44.67 l -2.64,-12.56 c -1.13,-5.41 -6.43,-8.87 -11.83,-7.74 -0.11,0.02 -0.22,0.04 -0.32,0.07 l -46.45,11.32 c -2.78,0.68 -5.65,-0.73 -6.81,-3.35 -1.13,-2.54 -0.09,-5.52 2.37,-6.81 l 42.4,-22.19 c 4.67,-2.44 6.64,-8.1 4.5,-12.92 l -3.6,-8.08 c -1.97,-4.44 -6.85,-6.81 -11.56,-5.64 z m -437.48,35.45 -10.23,83.81 -59.56,21.34 c -4.84,1.74 -7.97,6.43 -7.72,11.57 0.24,4.84 4.23,8.64 9.08,8.64 h 107.5 c 5.23,0 9.57,-4.03 9.97,-9.24 l 3.45,-45.54 c 0.21,-2.78 2.53,-4.93 5.32,-4.93 2.86,0 5.31,2.05 5.82,4.87 l 8.34,46.6 c 0.85,4.77 5,8.24 9.84,8.24 h 8.56 c 5.4,0 9.83,-4.29 9.99,-9.69 l 2.14,-70.17 z"
       fill="#000000"
       id="path195" />
    <path
       fill-rule="evenodd"
       clip-rule="evenodd"
       d="m 1662.21,1433.59 c -0.44,7.73 0.31,15.49 2.23,23 l 51.03,199.17 114.4,1.47 -65.15,-189.06 111.04,4.63 -1.98,180.21 c -0.19,17.55 6.74,33.51 18.11,45.14 11.37,11.62 27.18,18.91 44.72,19.1 h 0.69 0.69 c 31.31,-0.33 93.63,-11.4 186.96,-33.17 L 2095.12,1576 1977,1604.59 v -160.9 c 0,-18.34 -7.06,-35.14 -18.7,-47.69 -11.64,-12.55 -27.85,-20.87 -46.14,-22.25 l -65.09,-4.93 c -0.6,-0.05 -1.2,-0.09 -1.8,-0.12 l -103.59,-5.95 c -20.75,-1.19 -40.02,6.14 -54.4,18.96 -14.39,12.82 -23.88,31.12 -25.07,51.88 z"
       fill="#66ec36"
       stroke="#000000"
       stroke-width="2.5"
       id="path197" />
    <path
       d="m 1876,1441.75 v 31.5"
       stroke="#000000"
       stroke-width="2.5"
       stroke-linecap="round"
       stroke-linejoin="round"
       id="path199" />
    <path
       fill-rule="evenodd"
       clip-rule="evenodd"
       d="m 1908.67,1279.29 11.75,-11.94 c 6.76,-6.01 33.94,-1.35 81.55,13.98 46.66,15.02 70.33,22.7 71.01,23.03 l 0.01,0.01 36.2,-131.91 -30.69,-14.87 c -6.88,-3.33 -9.9,-11.49 -6.85,-18.5 2.89,-6.64 10.61,-9.67 17.25,-6.78 0.17,0.07 0.34,0.15 0.51,0.23 l 39.41,19.24 6.62,-13.75 4.23,-24.5 c 1.23,-7.15 8.01,-11.96 15.17,-10.76 7.23,1.22 12.22,7.93 11.3,15.21 l -1.27,10.01 c -1.47,11.69 -5,23.03 -10.42,33.49 l 2.33,0.87 8.53,-16.8 3.37,-24.63 c 0.98,-7.19 7.59,-12.23 14.79,-11.28 7.27,0.97 12.48,7.5 11.82,14.8 l -0.91,10.05 c -1.13,12.44 -4.58,24.55 -10.17,35.72 l -1,1.99 1.23,0.46 10.24,-18.51 4.22,-24.5 c 1.24,-7.15 8.02,-11.96 15.18,-10.75 7.23,1.21 12.21,7.92 11.3,15.2 l -1.32,10.38 c -1.53,12.15 -5.32,23.89 -11.18,34.64 l -6.19,11.36 -67.55,173.92 c -5.3,13.66 -20.24,20.92 -34.26,16.65 l -180.76,-55.07 c -9.78,-2.98 -17.61,-10.35 -21.18,-19.93 -3.45,-9.27 -1.21,-19.71 5.73,-26.76 z"
       fill="#ffffff"
       stroke="#000000"
       stroke-width="2.5"
       stroke-linecap="round"
       stroke-linejoin="round"
       id="path201" />
    <path
       d="m 2072.73,1304.5 9.68,2.95"
       stroke="#000000"
       stroke-width="2.5"
       stroke-linecap="round"
       stroke-linejoin="round"
       id="path203" />
    <path
       fill-rule="evenodd"
       clip-rule="evenodd"
       d="m 2194.6,1177.11 -53.74,-21.22 z"
       stroke="#000000"
       stroke-width="2.5"
       stroke-linecap="round"
       stroke-linejoin="round"
       id="path205" />
    <path
       fill-rule="evenodd"
       clip-rule="evenodd"
       d="m 1899.09,1290.89 -7.75,-14.85 c -4.71,-7.73 -32.06,-11.22 -82.07,-10.48 -50.02,0.74 -74.9,1.16 -74.66,1.28 l 5.65,-120.1 c 0.6,-12.78 -7.25,-24.44 -19.31,-28.71 -17.19,-6.07 -32.43,-9.58 -45.72,-10.53 -16.51,-1.18 -44.44,-6.99 -83.79,-17.44 -6.76,-1.79 -13.7,2.23 -15.5,9 -0.08,0.31 -0.15,0.62 -0.21,0.94 -1.4,7.56 3.38,14.89 10.86,16.66 l 27.89,6.59 c 24.17,5.71 41.25,27.3 41.25,52.14 l -0.01,127.42 c 0.02,15.46 12.54,27.99 28,28.03 l 186.94,0.18 c 10.22,0.01 19.87,-4.74 26.08,-12.86 6.01,-7.86 6.93,-18.5 2.35,-27.27 z"
       fill="#ffffff"
       stroke="#000000"
       stroke-width="2.5"
       stroke-linecap="round"
       id="path207" />
    <path
       fill-rule="evenodd"
       clip-rule="evenodd"
       d="m 1708.5,1114 c -0.01,0 -26.18,-10.13 -78.52,-30.37 -7.15,-2.18 -14.73,1.84 -16.93,8.98 -2.2,7.11 1.78,14.66 8.89,16.85 0.02,0.01 0.04,0.01 0.06,0.02 l 42.54,17.32"
       fill="#ffffff"
       id="path209" />
    <path
       d="m 1708.5,1114 c -0.01,0 -26.18,-10.13 -78.52,-30.37 -7.15,-2.18 -14.73,1.84 -16.93,8.98 -2.2,7.11 1.78,14.66 8.89,16.85 0.02,0.01 0.04,0.01 0.06,0.02 l 42.54,17.32"
       stroke="#000000"
       stroke-width="2.5"
       stroke-linecap="round"
       stroke-linejoin="round"
       id="path211" />
    <path
       fill-rule="evenodd"
       clip-rule="evenodd"
       d="m 1847.73,1299.28 c -0.08,1.26 -0.08,2.51 0.01,3.77 l 2.15,31.15 c 0.85,12.26 6.37,23.15 14.75,30.97 8.38,7.82 19.62,12.58 31.91,12.58 12.39,0 23.76,-4.71 32.34,-12.5 8.57,-7.78 14.34,-18.66 15.53,-30.99 l 2.86,-29.76 c 0.76,-7.91 -1.76,-15.37 -6.44,-21.05 -4.68,-5.67 -11.53,-9.56 -19.43,-10.32 -2.43,-0.24 -4.88,-0.16 -7.29,0.23 l -5.62,0.9 -30.3,-1.89 c -7.92,-0.49 -15.29,2.28 -20.81,7.15 -5.51,4.87 -9.17,11.84 -9.66,19.76 z"
       fill="#ff75aa"
       stroke="#000000"
       stroke-width="2.5"
       id="path213" />
    <path
       d="m 1627,1111.5 c -2.62,-9.79 -7.6,-14.97 -14.94,-15.54"
       stroke="#000000"
       stroke-width="2.5"
       stroke-linecap="round"
       stroke-linejoin="round"
       id="path215" />
    <path
       d="m 1591.07,1117.51 c -2.61,-9.79 -7.59,-14.96 -14.94,-15.53"
       stroke="#000000"
       stroke-width="2.5"
       stroke-linecap="round"
       stroke-linejoin="round"
       id="path217" />
    <path
       fill-rule="evenodd"
       clip-rule="evenodd"
       d="m 1865,1243 c 0,0.26 0.4,4.55 1.21,12.87 0.45,4.61 4.32,8.13 8.96,8.13 h 44.5 c 4.97,0 9,-4.03 9,-9 0,-0.55 -0.05,-1.1 -0.15,-1.65 L 1922.5,1221 c -38.33,14.33 -57.5,21.67 -57.5,22 z"
       fill="#000000"
       id="path219" />
    <path
       fill-rule="evenodd"
       clip-rule="evenodd"
       d="m 1881.28,1271.15 0.15,-28.01 28.52,-6.73 5.3,36.11 c -4.98,2.09 -11.21,3.18 -18.68,3.28 -7.47,0.1 -12.57,-1.45 -15.29,-4.65 z"
       fill="#ffffff"
       stroke="#000000"
       stroke-width="2.5"
       stroke-linecap="round"
       stroke-linejoin="round"
       id="path221" />
    <path
       fill-rule="evenodd"
       clip-rule="evenodd"
       d="m 1881.23,1268.53 23.99,-23.25 -24.19,0.05 z"
       fill="#000000"
       id="path223" />
    <path
       d="m 1887.85,1201.55 c 14.55,-3.09 28.85,5.85 32.54,20.1 0.52,-0.11 1.04,-0.18 1.58,-0.21 5.52,-0.29 10.24,4.17 10.54,9.96 0.3,5.79 -3.92,10.72 -9.44,11.01 -1.6,0.08 -3.13,-0.23 -4.5,-0.86 -3.89,8.39 -11.61,14.94 -21.45,17.03 -13.87,2.95 -24.07,-3.99 -28.99,-15.96 -0.28,0.04 -0.57,0.07 -0.86,0.08 -5.51,0.29 -10.23,-4.17 -10.53,-9.96 -0.28,-5.21 3.11,-9.72 7.81,-10.78 0.57,-8.19 4.9,-13.66 15.75,-17.8 0.76,-0.29 1.57,-0.62 2.45,-1 1.65,-0.7 3.36,-1.24 5.1,-1.61 z"
       fill="#ffffff"
       stroke="#000000"
       stroke-width="2.5"
       stroke-linecap="round"
       stroke-linejoin="round"
       id="path225" />
    <mask
       id="mask1"
       mask-type="alpha"
       maskUnits="userSpaceOnUse"
       x="1855"
       y="1199"
       width="79"
       height="62">
      <path
         d="m 1887.85,1201.55 c 14.55,-3.09 28.85,5.85 32.54,20.1 0.52,-0.11 1.04,-0.18 1.58,-0.21 5.52,-0.29 10.24,4.17 10.54,9.96 0.3,5.79 -3.92,10.72 -9.44,11.01 -1.6,0.08 -3.13,-0.23 -4.5,-0.86 -3.89,8.39 -11.61,14.94 -21.45,17.03 -13.87,2.95 -24.07,-3.99 -28.99,-15.96 -0.28,0.04 -0.57,0.07 -0.86,0.08 -5.51,0.29 -10.23,-4.17 -10.53,-9.96 -0.28,-5.21 3.11,-9.72 7.81,-10.78 0.57,-8.19 4.9,-13.66 15.75,-17.8 0.76,-0.29 1.57,-0.62 2.45,-1 1.65,-0.7 3.36,-1.24 5.1,-1.61 z"
         fill="#ffffff"
         stroke="#000000"
         stroke-width="2.5"
         stroke-linecap="round"
         stroke-linejoin="round"
         id="path227" />
    </mask>
    <g
       mask="url(#mask1)"
       id="g232">
      <path
         fill-rule="evenodd"
         clip-rule="evenodd"
         d="m 1927.41,1212.14 -6.16,9.57 c -13.52,-0.37 -22.41,-1.41 -26.68,-3.14 -4.26,-1.73 -7.53,-5.61 -9.79,-11.64 -2.04,5.65 -4.27,9.43 -6.7,11.35 -2.44,1.92 -6.79,3.35 -13.08,4.27 -3.58,-16.41 -0.57,-25.91 9.01,-28.5 14.38,-3.87 34.78,-10.6 40.24,-0.71 3.64,6.59 8.03,12.86 13.16,18.8 z"
         fill="#000000"
         id="path230" />
    </g>
    <path
       fill-rule="evenodd"
       clip-rule="evenodd"
       d="m 1875.71,1229.99 c 1.65,-0.14 3.11,1.08 3.25,2.73 l 0.09,1 c 0.14,1.65 -1.08,3.1 -2.73,3.25 -1.65,0.14 -3.1,-1.08 -3.25,-2.73 l -0.09,-1 c -0.14,-1.65 1.08,-3.1 2.73,-3.25 z m 21.01,-0.83 c 1.65,-0.14 3.1,1.08 3.25,2.73 l 0.09,0.99 c 0.14,1.65 -1.08,3.11 -2.73,3.25 -1.65,0.15 -3.11,-1.07 -3.25,-2.72 l -0.09,-1 c -0.14,-1.65 1.08,-3.11 2.73,-3.25 z"
       stroke="#000000"
       stroke-width="2"
       stroke-linecap="round"
       stroke-linejoin="round"
       id="path234" />
    <path
       d="m 1887.89,1242.98 c -1.54,1.48 -3.2,1.62 -4.98,0.44"
       stroke="#000000"
       stroke-width="2"
       stroke-linecap="round"
       stroke-linejoin="round"
       id="path236" />
    <path
       d="m 1884.59,1228.21 -2.03,11.22 2.99,-0.26"
       stroke="#000000"
       stroke-width="2"
       stroke-linecap="round"
       stroke-linejoin="round"
       id="path238" />
    <g
       clip-path="url(#clip1)"
       id="g250">
      <path
         fill-rule="evenodd"
         clip-rule="evenodd"
         d="m 1788.42,1058.13 97.14,-21.17 c 7.82,-1.71 15.57,3.13 17.48,10.9 1.85,7.51 -2.75,15.1 -10.26,16.94 -0.12,0.03 -0.24,0.06 -0.36,0.09 l -97.13,21.17 c -7.82,1.7 -15.58,-3.14 -17.49,-10.91 -1.85,-7.51 2.75,-15.09 10.26,-16.94 0.12,-0.03 0.24,-0.06 0.36,-0.08 z"
         fill="#ffffff"
         stroke="#000000"
         stroke-width="1.5"
         stroke-linecap="round"
         id="path240" />
      <path
         d="m 1836.4,1061.17 10.84,54.94"
         stroke="#000000"
         stroke-width="2.5"
         stroke-linecap="round"
         stroke-linejoin="round"
         id="path242" />
      <path
         d="m 2224.14,1024.18 -559.56,-118.657 -37.13,175.107 559.56,118.65 z"
         fill="#ffffd9"
         stroke="#000000"
         stroke-width="2.5"
         stroke-linecap="round"
         stroke-linejoin="round"
         id="path244" />
      <path
         fill-rule="evenodd"
         clip-rule="evenodd"
         d="m 1667.3,907.483 518.95,290.257 z m 556.63,117.677 -596.48,55.47 z"
         fill="#ffffff"
         id="path246" />
      <path
         d="m 2223.93,1025.16 -596.48,55.47 m 39.85,-173.147 518.95,290.257 z"
         stroke="#000000"
         stroke-width="2.5"
         stroke-linecap="round"
         stroke-linejoin="round"
         id="path248" />
    </g>
  </g>
  <defs
     id="defs285">
    <clipPath
       id="clip0">
      <rect
         width="2811"
         height="1999"
         fill="#ffffff"
         id="rect276"
         x="0"
         y="0" />
    </clipPath>
    <clipPath
       id="clip1">
      <path
         d="M 1647.45,861 2256.89,990.234 2205.45,1232.84 1596,1103.61 Z"
         fill="#ffffff"
         id="path279" />
    </clipPath>
    <clipPath
       id="clip2">
      <path
         d="m 1048.01,636 340.25,62.818 -55.01,297.965 L 993,933.964 Z"
         fill="#ffffff"
         id="path282" />
    </clipPath>
  </defs>
</svg>
